<?xml version="1.0" standalone="no"?>
<!DOCTYPE svg PUBLIC "-//W3C//DTD SVG 1.1//EN" "http://www.w3.org/Graphics/SVG/1.1/DTD/svg11.dtd">
<svg version="1.1" xmlns="http://www.w3.org/2000/svg" viewBox="0 0 182.1698220674882 179.09061750253392" width="182.1698220674882" height="179.09061750253392"><!-- svg-source:excalidraw --><metadata></metadata><defs><style class="style-fonts">
      </style></defs><g stroke-linecap="round" transform="translate(9.999999999999773 12.052789992065527) rotate(0 81.08491103374422 78.5189137552342)"><path d="M138.16 21.6 C146.11 27.89, 151.51 40.05, 155.18 50.13 C158.85 60.22, 160.79 71.7, 160.17 82.12 C159.55 92.54, 156.51 103.39, 151.47 112.68 C146.44 121.97, 137.96 130.99, 129.95 137.86 C121.93 144.73, 113.62 151.15, 103.4 153.89 C93.18 156.63, 79.99 155.84, 68.63 154.28 C57.27 152.72, 44.79 149.83, 35.22 144.54 C25.65 139.25, 16.61 131.88, 11.22 122.54 C5.83 113.2, 3.97 99.5, 2.87 88.5 C1.77 77.5, 1.87 66.6, 4.63 56.56 C7.39 46.51, 12.62 36.37, 19.45 28.22 C26.27 20.07, 35.86 12.5, 45.55 7.66 C55.24 2.83, 66.84 -0.68, 77.59 -0.8 C88.35 -0.91, 98.77 1.5, 110.09 6.97 C121.42 12.45, 138.83 26.91, 145.53 32.05 C152.23 37.19, 151.3 37.36, 150.31 37.82 M29.34 18.44 C36.86 10.26, 53.1 2.99, 63.55 -0.37 C74 -3.72, 82.13 -4.19, 92.05 -1.69 C101.98 0.8, 113.2 8.13, 123.1 14.58 C133 21.04, 145.33 28.13, 151.44 37.06 C157.55 45.99, 158.53 57.86, 159.75 68.17 C160.97 78.48, 161.03 88.82, 158.77 98.94 C156.52 109.06, 153.32 120.88, 146.2 128.91 C139.07 136.95, 126.62 142.28, 116 147.17 C105.39 152.05, 93.01 157.63, 82.52 158.2 C72.03 158.77, 63.25 154.58, 53.07 150.59 C42.9 146.59, 29.24 141.29, 21.49 134.24 C13.74 127.19, 10.54 118.4, 6.57 108.29 C2.61 98.18, -3.16 84.65, -2.27 73.58 C-1.39 62.51, 6.87 51.15, 11.88 41.86 C16.9 32.58, 24.34 21.81, 27.82 17.88 C31.3 13.94, 30.99 17.76, 32.75 18.27" stroke="#1e1e1e" stroke-width="4" fill="none"></path></g><g transform="translate(14.105579984130827 81.84737564630564) rotate(0 35.923687823152704 25.65977701653773)" stroke="none"><path fill="#1e1e1e" d="M 0.64,-1.92 Q 0.64,-1.92 2.40,-1.30 4.16,-0.68 5.40,-0.51 6.65,-0.34 8.15,0.43 9.66,1.21 10.73,1.73 11.80,2.26 13.03,2.73 14.27,3.21 15.85,4.12 17.43,5.03 19.32,6.77 21.20,8.51 23.50,9.70 25.80,10.90 27.34,12.11 28.88,13.32 30.84,14.10 32.80,14.87 34.39,15.26 35.98,15.65 37.40,15.79 38.82,15.93 40.12,16.31 41.41,16.69 42.72,16.74 44.02,16.80 45.51,16.54 46.99,16.29 48.74,15.09 50.48,13.90 52.25,13.30 54.02,12.71 55.30,12.57 56.58,12.43 57.75,12.42 58.92,12.42 60.37,12.77 61.83,13.11 63.03,13.59 64.24,14.07 65.24,14.67 66.25,15.27 67.45,16.67 68.64,18.08 69.59,18.86 70.54,19.64 71.30,20.54 72.05,21.44 73.33,23.61 74.60,25.77 74.79,27.25 74.99,28.72 74.78,30.40 74.58,32.07 74.36,33.85 74.14,35.63 74.13,36.89 74.12,38.16 73.73,39.92 73.35,41.69 71.74,42.97 70.14,44.25 68.90,44.34 67.65,44.42 67.25,45.61 66.85,46.79 65.34,48.31 63.84,49.83 63.27,51.23 62.71,52.63 61.67,53.37 60.64,54.11 59.05,54.42 57.45,54.73 55.85,54.56 54.25,54.39 54.21,54.01 54.17,53.62 53.75,53.58 53.33,53.53 52.94,53.39 52.54,53.24 52.19,53.01 51.84,52.78 51.56,52.46 51.28,52.15 51.08,51.78 50.88,51.41 50.77,51.01 50.66,50.60 50.66,50.18 50.65,49.76 50.75,49.35 50.84,48.94 51.03,48.56 51.22,48.18 51.50,47.87 51.77,47.55 52.12,47.30 52.46,47.06 52.85,46.90 53.24,46.75 53.66,46.69 54.08,46.64 55.27,49.73 56.46,52.82 56.83,51.57 57.20,50.32 57.25,50.74 57.29,51.16 57.23,51.59 57.17,52.01 57.01,52.40 56.86,52.80 56.61,53.15 56.36,53.49 56.03,53.77 55.71,54.05 55.33,54.24 54.95,54.43 54.53,54.52 54.12,54.62 53.69,54.61 53.27,54.60 52.85,54.49 52.44,54.38 52.07,54.18 51.69,53.97 51.38,53.68 51.07,53.40 50.83,53.04 50.59,52.69 50.45,52.29 50.31,51.88 51.04,52.84 51.78,53.80 50.79,53.19 49.81,52.58 48.13,51.02 46.46,49.47 45.78,48.24 45.11,47.02 43.90,45.86 42.68,44.70 41.10,43.52 39.52,42.34 38.50,40.89 37.47,39.43 36.70,38.67 35.94,37.90 34.74,38.20 33.55,38.49 32.04,38.08 30.52,37.68 29.27,37.15 28.03,36.63 26.52,35.67 25.01,34.71 23.76,34.44 22.50,34.16 20.59,33.63 18.67,33.11 17.13,32.89 15.59,32.68 13.79,32.23 12.00,31.77 11.48,31.25 10.96,30.74 10.60,30.96 10.23,31.18 9.81,31.28 9.40,31.37 8.97,31.33 8.54,31.29 8.15,31.11 7.76,30.93 7.45,30.64 7.14,30.35 6.94,29.97 6.73,29.60 6.66,29.18 6.59,28.75 6.65,28.33 6.72,27.91 6.92,27.53 7.12,27.15 7.42,26.85 7.73,26.56 8.12,26.37 8.51,26.19 8.93,26.14 9.36,26.09 9.77,26.18 10.19,26.27 10.56,26.49 10.93,26.71 11.21,27.03 11.49,27.35 11.65,27.75 11.81,28.15 11.84,28.57 11.86,29.00 11.75,29.41 11.64,29.83 11.40,30.18 11.17,30.54 10.83,30.80 10.49,31.06 10.08,31.20 9.68,31.34 9.25,31.34 8.82,31.35 8.42,31.21 8.01,31.08 7.67,30.82 7.33,30.57 7.08,30.21 6.84,29.86 6.72,29.45 6.61,29.04 6.63,28.61 6.65,28.18 6.80,27.79 6.96,27.39 7.23,27.06 7.51,26.73 7.51,26.73 7.51,26.73 10.38,26.74 13.25,26.76 14.66,27.02 16.07,27.29 17.90,27.37 19.73,27.46 21.58,27.64 23.42,27.82 24.71,28.04 26.00,28.26 27.10,28.70 28.20,29.14 29.37,29.72 30.55,30.30 32.17,30.82 33.79,31.34 35.10,31.40 36.42,31.45 37.70,31.65 38.98,31.85 40.06,32.51 41.15,33.18 41.89,34.34 42.64,35.50 43.85,36.62 45.07,37.73 46.37,39.10 47.66,40.46 49.11,41.53 50.56,42.59 51.12,44.07 51.67,45.55 52.79,46.31 53.91,47.07 54.95,47.78 55.98,48.48 56.59,49.40 57.20,50.32 57.25,50.74 57.29,51.16 57.23,51.59 57.17,52.01 57.01,52.40 56.86,52.80 56.61,53.15 56.36,53.49 56.03,53.77 55.71,54.05 55.33,54.24 54.95,54.43 54.53,54.52 54.12,54.62 53.69,54.61 53.27,54.60 52.85,54.49 52.44,54.38 52.07,54.18 51.69,53.97 51.38,53.69 51.07,53.40 50.83,53.04 50.60,52.69 50.45,52.29 50.31,51.88 51.20,50.34 52.10,48.80 53.13,51.21 54.17,53.62 53.75,53.58 53.34,53.53 52.94,53.39 52.54,53.25 52.19,53.01 51.84,52.78 51.56,52.46 51.28,52.15 51.08,51.78 50.88,51.41 50.77,51.01 50.66,50.60 50.66,50.18 50.65,49.76 50.75,49.35 50.84,48.94 51.03,48.56 51.22,48.18 51.50,47.87 51.77,47.55 52.12,47.30 52.46,47.06 52.85,46.90 53.24,46.75 53.66,46.69 54.08,46.64 55.89,46.95 57.69,47.25 58.94,45.98 60.18,44.72 61.55,43.30 62.91,41.89 63.60,40.59 64.29,39.29 65.92,38.67 67.54,38.06 67.60,36.67 67.65,35.29 67.70,34.16 67.75,33.03 68.16,30.62 68.57,28.21 68.22,27.05 67.86,25.90 66.74,24.68 65.62,23.45 64.89,22.63 64.16,21.81 63.08,20.69 62.00,19.58 60.45,18.98 58.90,18.39 57.39,18.39 55.87,18.39 54.55,18.52 53.23,18.65 52.31,19.18 51.38,19.71 49.97,20.60 48.57,21.49 46.10,21.75 43.64,22.00 42.57,21.87 41.51,21.73 39.92,21.13 38.34,20.53 36.42,20.34 34.50,20.16 33.35,19.73 32.20,19.31 30.76,18.44 29.32,17.57 27.95,16.89 26.59,16.21 25.38,15.19 24.18,14.16 21.40,12.88 18.63,11.59 16.91,10.27 15.20,8.95 13.87,8.22 12.53,7.48 11.08,6.86 9.62,6.25 7.71,4.98 5.80,3.70 4.36,3.37 2.92,3.04 1.13,2.48 -0.64,1.92 -0.86,1.82 -1.08,1.71 -1.27,1.56 -1.46,1.40 -1.60,1.21 -1.75,1.01 -1.85,0.79 -1.94,0.56 -1.98,0.32 -2.02,0.08 -2.00,-0.16 -1.98,-0.40 -1.91,-0.63 -1.83,-0.86 -1.70,-1.07 -1.57,-1.28 -1.39,-1.45 -1.21,-1.62 -1.00,-1.74 -0.79,-1.86 -0.56,-1.93 -0.32,-2.00 -0.08,-2.01 0.16,-2.02 0.40,-1.97 0.64,-1.92 0.64,-1.92 L 0.64,-1.92 Z"></path></g><g transform="translate(47.97651696893058 131.11413968731557) rotate(0 49.77995175059823 -43.108413641669614)" stroke="none"><path fill="#1e1e1e" d="M 1.58,-2.11 Q 1.58,-2.11 2.78,-1.17 3.98,-0.23 5.25,0.43 6.52,1.09 7.55,1.57 8.58,2.06 10.13,2.74 11.67,3.43 13.09,4.67 14.51,5.91 15.77,5.93 17.04,5.94 18.24,6.36 19.44,6.77 20.78,6.87 22.11,6.97 23.29,7.46 24.47,7.95 25.65,8.84 26.83,9.73 27.93,9.29 29.04,8.85 30.72,8.64 32.39,8.43 33.98,8.34 35.56,8.24 37.20,7.43 38.85,6.62 40.41,6.13 41.98,5.63 42.53,4.59 43.09,3.55 44.09,2.51 45.10,1.48 45.87,0.13 46.65,-1.21 47.61,-2.63 48.57,-4.05 49.14,-5.67 49.70,-7.29 49.75,-8.86 49.81,-10.43 50.26,-11.72 50.71,-13.01 50.84,-14.17 50.96,-15.33 51.04,-17.25 51.11,-19.17 51.52,-20.45 51.93,-21.72 52.40,-23.52 52.87,-25.32 53.78,-26.94 54.69,-28.57 55.60,-29.51 56.51,-30.45 57.67,-31.09 58.83,-31.73 60.01,-32.09 61.18,-32.45 63.38,-33.10 65.57,-33.76 67.17,-34.78 68.76,-35.80 70.28,-36.37 71.81,-36.94 72.84,-37.25 73.88,-37.55 75.40,-38.00 76.92,-38.45 77.84,-39.41 78.76,-40.38 80.18,-41.43 81.60,-42.49 82.95,-43.27 84.31,-44.05 86.09,-45.29 87.88,-46.54 89.29,-47.61 90.70,-48.68 91.29,-49.58 91.89,-50.48 92.75,-51.26 93.62,-52.04 94.30,-54.14 94.99,-56.24 95.61,-58.28 96.22,-60.32 96.21,-61.63 96.19,-62.94 96.20,-64.23 96.20,-65.52 96.23,-67.31 96.26,-69.11 96.09,-70.35 95.93,-71.60 95.64,-73.14 95.36,-74.68 94.51,-76.29 93.65,-77.90 91.69,-79.76 89.73,-81.61 89.09,-82.82 88.45,-84.03 87.49,-85.72 86.52,-87.40 85.72,-88.15 84.92,-88.91 82.47,-89.35 80.02,-89.79 78.70,-90.75 77.38,-91.71 75.83,-92.36 74.28,-93.00 73.13,-93.55 71.98,-94.10 70.90,-94.64 69.81,-95.17 67.90,-95.16 66.00,-95.14 64.31,-95.16 62.63,-95.17 61.06,-95.18 59.50,-95.18 57.35,-94.78 55.20,-94.39 53.55,-93.90 51.90,-93.40 50.31,-92.94 48.72,-92.48 48.31,-92.51 47.90,-92.54 47.51,-92.67 47.11,-92.80 46.76,-93.01 46.41,-93.23 46.12,-93.53 45.84,-93.82 45.63,-94.18 45.42,-94.54 45.30,-94.93 45.18,-95.33 45.16,-95.74 45.15,-96.15 45.22,-96.56 45.30,-96.96 45.48,-97.34 45.65,-97.71 45.91,-98.03 46.17,-98.36 46.50,-98.61 46.83,-98.86 47.21,-99.02 47.59,-99.19 47.99,-99.25 48.40,-99.32 49.06,-96.37 49.71,-93.41 49.30,-93.44 48.89,-93.47 48.50,-93.60 48.11,-93.73 47.76,-93.95 47.41,-94.16 47.13,-94.46 46.84,-94.75 46.63,-95.11 46.42,-95.46 46.31,-95.86 46.19,-96.25 46.17,-96.66 46.15,-97.07 46.23,-97.48 46.31,-97.88 46.48,-98.25 46.66,-98.63 46.92,-98.95 47.17,-99.27 47.50,-99.52 47.83,-99.77 48.21,-99.93 48.58,-100.09 48.99,-100.16 49.39,-100.23 48.56,-97.16 47.72,-94.10 46.45,-92.87 45.18,-91.64 44.37,-90.07 43.56,-88.50 42.99,-87.30 42.41,-86.10 41.56,-84.05 40.71,-82.00 39.67,-80.10 38.64,-78.19 37.89,-76.26 37.14,-74.32 36.68,-73.34 36.22,-72.36 36.16,-71.12 36.09,-69.88 35.70,-68.50 35.30,-67.13 34.73,-66.10 34.17,-65.08 33.63,-62.91 33.09,-60.73 32.81,-59.38 32.54,-58.02 32.45,-57.63 32.37,-57.23 32.20,-56.87 32.02,-56.51 31.76,-56.19 31.51,-55.88 31.18,-55.64 30.86,-55.40 30.49,-55.25 30.11,-55.09 29.72,-55.03 29.32,-54.97 28.92,-55.00 28.51,-55.04 28.13,-55.17 27.75,-55.30 27.41,-55.52 27.07,-55.73 26.80,-56.03 26.52,-56.32 26.32,-56.67 26.12,-57.02 26.01,-57.41 25.90,-57.80 25.89,-58.20 25.87,-58.60 26.96,-57.46 28.05,-56.31 29.09,-56.70 30.12,-57.09 29.85,-55.53 29.57,-53.97 28.79,-52.90 28.01,-51.84 27.00,-51.34 25.98,-50.84 26.15,-49.62 26.33,-48.41 25.38,-46.78 24.43,-45.15 24.09,-43.96 23.75,-42.77 22.08,-41.43 20.42,-40.09 19.30,-39.50 18.19,-38.92 17.19,-38.40 16.19,-37.89 15.24,-37.44 14.30,-37.00 13.90,-36.57 13.50,-36.15 12.99,-35.87 12.47,-35.59 11.90,-35.49 11.32,-35.39 10.74,-35.48 10.17,-35.56 9.65,-35.83 9.13,-36.10 8.72,-36.52 8.32,-36.94 8.07,-37.47 7.82,-38.00 7.75,-38.58 7.68,-39.16 7.80,-39.73 7.92,-40.30 8.21,-40.80 8.51,-41.31 8.95,-41.69 9.39,-42.07 9.93,-42.30 10.47,-42.52 11.06,-42.55 11.64,-42.59 12.20,-42.44 12.77,-42.29 13.26,-41.97 13.74,-41.64 14.10,-41.18 14.46,-40.72 14.65,-40.17 14.84,-39.62 14.85,-39.03 14.85,-38.45 14.67,-37.89 14.49,-37.34 14.14,-36.87 13.80,-36.40 13.31,-36.07 12.83,-35.74 12.27,-35.57 11.71,-35.41 11.13,-35.44 10.54,-35.46 10.00,-35.67 9.45,-35.88 9.01,-36.26 8.56,-36.63 8.25,-37.13 7.94,-37.63 7.81,-38.20 7.68,-38.77 7.74,-39.35 7.80,-39.93 8.04,-40.46 8.28,-40.99 8.28,-40.99 8.28,-40.99 10.65,-42.36 13.01,-43.72 14.04,-44.22 15.07,-44.72 16.64,-45.59 18.22,-46.46 18.93,-47.91 19.65,-49.35 19.93,-50.54 20.20,-51.73 20.40,-52.98 20.59,-54.24 21.93,-55.27 23.27,-56.29 23.43,-57.66 23.59,-59.02 24.16,-60.09 24.73,-61.16 25.98,-61.73 27.23,-62.30 29.12,-61.71 31.02,-61.13 31.78,-59.57 32.54,-58.02 32.45,-57.63 32.37,-57.23 32.20,-56.87 32.02,-56.51 31.76,-56.20 31.51,-55.88 31.18,-55.64 30.86,-55.40 30.49,-55.25 30.11,-55.09 29.72,-55.03 29.32,-54.97 28.92,-55.00 28.52,-55.04 28.13,-55.17 27.75,-55.30 27.41,-55.52 27.07,-55.73 26.80,-56.03 26.52,-56.32 26.32,-56.67 26.12,-57.02 26.01,-57.41 25.90,-57.80 25.89,-58.20 25.87,-58.60 26.28,-59.93 26.69,-61.25 27.14,-62.50 27.60,-63.75 27.78,-65.11 27.96,-66.47 28.82,-68.34 29.69,-70.20 29.86,-72.00 30.03,-73.79 31.08,-75.74 32.13,-77.68 32.70,-79.78 33.27,-81.89 33.95,-83.03 34.62,-84.17 35.06,-85.62 35.50,-87.07 36.22,-88.57 36.93,-90.07 37.42,-91.14 37.92,-92.22 38.64,-93.92 39.36,-95.62 40.70,-96.88 42.04,-98.13 44.04,-99.11 46.03,-100.09 47.95,-100.21 49.87,-100.33 49.79,-96.87 49.71,-93.41 49.30,-93.44 48.89,-93.47 48.50,-93.60 48.11,-93.73 47.76,-93.95 47.41,-94.16 47.13,-94.46 46.84,-94.75 46.63,-95.11 46.42,-95.46 46.31,-95.86 46.19,-96.25 46.17,-96.66 46.15,-97.07 46.23,-97.48 46.31,-97.88 46.48,-98.25 46.66,-98.63 46.92,-98.95 47.17,-99.27 47.50,-99.52 47.83,-99.77 48.21,-99.93 48.58,-100.09 48.99,-100.16 49.39,-100.23 49.06,-96.35 48.72,-92.48 48.31,-92.51 47.90,-92.54 47.51,-92.67 47.11,-92.80 46.76,-93.01 46.41,-93.23 46.12,-93.53 45.84,-93.82 45.63,-94.18 45.42,-94.54 45.30,-94.93 45.18,-95.33 45.16,-95.74 45.14,-96.15 45.22,-96.56 45.30,-96.96 45.48,-97.34 45.65,-97.71 45.91,-98.03 46.17,-98.36 46.50,-98.61 46.83,-98.86 47.21,-99.02 47.59,-99.19 47.99,-99.25 48.40,-99.32 48.13,-99.35 47.86,-99.38 49.24,-99.65 50.63,-99.91 51.82,-100.39 53.00,-100.88 54.28,-100.99 55.56,-101.10 56.91,-101.49 58.27,-101.88 59.56,-101.87 60.85,-101.86 62.46,-101.86 64.08,-101.86 66.05,-101.88 68.01,-101.89 69.73,-101.74 71.44,-101.60 73.13,-100.97 74.82,-100.34 76.60,-99.26 78.39,-98.17 80.31,-96.94 82.24,-95.71 83.46,-95.83 84.69,-95.94 85.88,-95.61 87.06,-95.28 88.35,-94.00 89.63,-92.71 90.84,-91.43 92.05,-90.15 93.04,-88.66 94.04,-87.18 95.24,-85.54 96.44,-83.91 97.35,-82.98 98.27,-82.05 98.75,-80.97 99.24,-79.89 100.04,-78.87 100.84,-77.86 101.42,-75.91 102.00,-73.96 102.40,-72.65 102.79,-71.35 102.82,-70.22 102.85,-69.10 102.87,-67.29 102.89,-65.48 102.87,-64.06 102.84,-62.65 102.72,-61.23 102.59,-59.82 102.03,-57.78 101.46,-55.74 100.94,-54.14 100.42,-52.53 99.69,-50.84 98.97,-49.16 98.04,-48.10 97.11,-47.05 96.41,-45.89 95.72,-44.72 94.57,-43.32 93.42,-41.91 91.78,-41.22 90.14,-40.54 89.14,-39.60 88.15,-38.67 87.24,-38.05 86.34,-37.43 84.84,-36.99 83.35,-36.56 82.38,-35.61 81.40,-34.66 80.06,-33.67 78.72,-32.68 77.63,-32.17 76.54,-31.67 75.34,-31.46 74.14,-31.24 72.12,-30.19 70.10,-29.13 67.91,-28.11 65.72,-27.09 63.75,-26.65 61.78,-26.21 60.49,-25.39 59.19,-24.57 58.84,-23.19 58.48,-21.80 58.06,-20.36 57.65,-18.91 57.64,-16.89 57.63,-14.86 57.55,-13.74 57.46,-12.62 56.99,-11.02 56.53,-9.41 56.30,-8.11 56.08,-6.80 55.74,-5.65 55.40,-4.50 54.80,-2.87 54.19,-1.25 53.31,0.33 52.42,1.92 51.87,2.95 51.32,3.99 50.10,5.59 48.87,7.18 47.72,8.33 46.57,9.48 45.25,10.49 43.93,11.49 41.88,12.23 39.83,12.97 38.10,13.83 36.38,14.70 35.26,14.86 34.13,15.01 32.61,15.40 31.08,15.79 29.50,15.76 27.91,15.74 26.72,15.67 25.54,15.60 24.01,14.76 22.49,13.93 21.43,13.68 20.37,13.43 18.74,13.11 17.10,12.79 15.91,12.44 14.71,12.09 13.04,11.41 11.37,10.74 9.78,9.18 8.18,7.62 6.71,7.08 5.24,6.54 3.95,6.14 2.66,5.74 1.70,4.75 0.73,3.77 -0.42,2.94 -1.58,2.11 -1.81,1.89 -2.04,1.67 -2.21,1.40 -2.38,1.13 -2.48,0.83 -2.58,0.53 -2.61,0.21 -2.63,-0.10 -2.58,-0.41 -2.53,-0.73 -2.41,-1.02 -2.28,-1.31 -2.09,-1.57 -1.90,-1.82 -1.65,-2.02 -1.41,-2.23 -1.12,-2.36 -0.83,-2.50 -0.52,-2.56 -0.21,-2.63 0.10,-2.61 0.42,-2.60 0.72,-2.51 1.03,-2.42 1.30,-2.27 1.58,-2.11 1.58,-2.11 L 1.58,-2.11 Z"></path></g><g transform="translate(120.85026803441292 56.18759862976793) rotate(0 -4.1055799841310545 7.1847551838011725)" stroke="none"><path fill="#1e1e1e" d="M 0,2.59 Q 0,2.59 -1.77,2.51 -3.55,2.44 -5.15,2.13 -6.75,1.81 -8.73,2.18 -10.70,2.55 -12.49,2.68 -14.28,2.81 -14.63,3.65 -14.98,4.49 -15.26,4.72 -15.55,4.95 -15.88,5.11 -16.21,5.27 -16.57,5.35 -16.93,5.42 -17.30,5.41 -17.67,5.40 -18.03,5.29 -18.38,5.19 -18.70,5.01 -19.02,4.83 -19.29,4.57 -19.55,4.32 -19.75,4.01 -19.95,3.69 -20.07,3.34 -20.19,3.00 -20.22,2.63 -20.25,2.26 -20.19,1.90 -20.13,1.53 -19.99,1.19 -19.85,0.85 -19.63,0.56 -19.41,0.26 -17.56,1.98 -15.71,3.71 -16.00,3.94 -16.28,4.18 -16.61,4.34 -16.95,4.50 -17.31,4.57 -17.67,4.65 -18.04,4.63 -18.41,4.62 -18.76,4.52 -19.12,4.42 -19.44,4.23 -19.76,4.05 -20.02,3.79 -20.29,3.54 -20.49,3.23 -20.69,2.92 -20.80,2.57 -20.92,2.22 -20.95,1.85 -20.98,1.48 -20.93,1.12 -20.87,0.75 -20.73,0.41 -20.58,0.07 -20.36,-0.21 -20.14,-0.51 -17.75,1.49 -15.37,3.50 -15.80,4.74 -16.24,5.97 -16.26,7.17 -16.29,8.36 -15.92,10.02 -15.55,11.68 -14.97,12.70 -14.40,13.72 -13.50,15.21 -12.60,16.70 -11.14,17.96 -9.69,19.23 -8.37,18.68 -7.06,18.14 -5.70,18.16 -4.35,18.17 -2.99,17.79 -1.63,17.41 -0.69,16.88 0.24,16.34 0.89,15.20 1.54,14.06 2.06,13.10 2.57,12.14 3.71,11.02 4.85,9.90 5.25,8.16 5.66,6.41 6.27,4.88 6.89,3.34 7.29,1.80 7.70,0.25 7.84,-0.92 7.98,-2.10 5.83,-2.90 3.67,-3.69 2.44,-3.75 1.21,-3.81 -0.00,-3.83 -1.23,-3.84 -2.89,-3.46 -4.54,-3.08 -6.05,-2.76 -7.57,-2.44 -8.47,-1.81 -9.37,-1.18 -10.36,-0.64 -11.35,-0.09 -12.15,1.37 -12.95,2.84 -13.93,4.19 -14.91,5.55 -15.37,6.73 -15.83,7.92 -16.15,8.85 -16.46,9.79 -16.63,10.26 -16.80,10.73 -17.11,11.12 -17.42,11.51 -17.84,11.78 -18.25,12.06 -18.74,12.18 -19.22,12.31 -19.72,12.27 -20.22,12.23 -20.68,12.04 -21.14,11.85 -21.51,11.52 -21.88,11.19 -22.13,10.75 -22.38,10.32 -22.48,9.83 -22.58,9.34 -22.52,8.85 -22.45,8.35 -22.24,7.90 -22.02,7.45 -21.67,7.10 -21.32,6.74 -20.87,6.52 -20.43,6.29 -19.93,6.22 -19.44,6.15 -18.95,6.24 -18.46,6.33 -18.02,6.57 -17.58,6.81 -17.25,7.18 -16.91,7.55 -16.71,8.01 -16.51,8.46 -16.46,8.96 -16.42,9.46 -16.54,9.94 -16.65,10.43 -16.92,10.85 -17.18,11.27 -17.57,11.59 -17.96,11.91 -18.42,12.08 -18.89,12.26 -19.39,12.27 -19.89,12.29 -20.37,12.15 -20.84,12.01 -21.25,11.72 -21.66,11.43 -21.95,11.03 -22.25,10.63 -22.40,10.15 -22.55,9.67 -22.54,9.18 -22.53,8.68 -22.53,8.68 -22.53,8.68 -22.09,7.33 -21.64,5.98 -21.07,4.09 -20.50,2.19 -19.84,1.12 -19.18,0.04 -18.33,-1.02 -17.48,-2.10 -16.49,-3.72 -15.50,-5.34 -13.66,-6.30 -11.81,-7.26 -10.78,-8.01 -9.76,-8.75 -7.60,-9.38 -5.44,-10.02 -4.38,-10.28 -3.31,-10.54 -2.21,-10.51 -1.11,-10.49 0.25,-10.43 1.63,-10.37 2.75,-10.30 3.88,-10.23 5.38,-9.76 6.88,-9.29 8.05,-9.15 9.23,-9.00 10.66,-8.25 12.10,-7.50 12.88,-6.02 13.65,-4.53 13.96,-2.31 14.26,-0.09 13.76,1.90 13.27,3.89 12.73,5.40 12.19,6.91 11.71,8.46 11.23,10.01 10.91,11.35 10.59,12.69 9.48,13.96 8.36,15.24 7.55,16.94 6.75,18.64 5.33,20.27 3.92,21.91 2.94,22.51 1.97,23.11 0.26,23.63 -1.43,24.16 -3.74,24.54 -6.04,24.93 -7.37,24.89 -8.70,24.85 -9.76,24.80 -10.83,24.74 -12.22,24.39 -13.61,24.04 -15.05,23.05 -16.50,22.06 -17.22,20.77 -17.95,19.49 -18.84,18.29 -19.74,17.08 -20.31,16.11 -20.89,15.13 -21.40,13.23 -21.92,11.33 -22.22,9.01 -22.53,6.70 -22.42,5.60 -22.30,4.49 -21.71,2.94 -21.11,1.39 -18.41,2.55 -15.71,3.71 -16.00,3.94 -16.28,4.18 -16.61,4.34 -16.95,4.50 -17.31,4.57 -17.67,4.65 -18.04,4.63 -18.41,4.62 -18.76,4.52 -19.12,4.42 -19.44,4.23 -19.76,4.05 -20.02,3.79 -20.29,3.54 -20.49,3.23 -20.69,2.92 -20.80,2.57 -20.92,2.22 -20.95,1.85 -20.98,1.48 -20.93,1.12 -20.87,0.75 -20.73,0.41 -20.58,0.07 -20.36,-0.21 -20.14,-0.51 -17.56,1.98 -14.98,4.48 -15.26,4.72 -15.55,4.95 -15.88,5.11 -16.21,5.27 -16.57,5.35 -16.93,5.42 -17.30,5.41 -17.67,5.40 -18.03,5.29 -18.38,5.19 -18.70,5.01 -19.02,4.83 -19.29,4.57 -19.55,4.32 -19.75,4.01 -19.95,3.69 -20.07,3.35 -20.19,3.00 -20.22,2.63 -20.25,2.26 -20.19,1.90 -20.13,1.53 -19.99,1.19 -19.85,0.85 -19.63,0.56 -19.41,0.26 -18.85,-0.53 -18.30,-1.32 -17.32,-1.94 -16.33,-2.56 -14.70,-2.70 -13.07,-2.84 -11.62,-2.84 -10.17,-2.85 -7.93,-2.92 -5.69,-3.00 -4.61,-2.72 -3.52,-2.44 -1.76,-2.51 0,-2.59 0.31,-2.55 0.62,-2.51 0.91,-2.40 1.20,-2.29 1.46,-2.11 1.71,-1.93 1.92,-1.70 2.13,-1.47 2.27,-1.19 2.42,-0.91 2.49,-0.61 2.57,-0.31 2.57,0.00 2.57,0.31 2.49,0.61 2.42,0.91 2.27,1.19 2.13,1.47 1.92,1.70 1.71,1.93 1.46,2.11 1.20,2.29 0.91,2.40 0.61,2.51 0.30,2.55 -0.00,2.59 -0.00,2.59 L 0,2.59 Z"></path></g><g transform="translate(62.34592945225154 26.422261205955408) rotate(0 -4.618728540006714 25.65977701653773)" stroke="none"><path fill="#228be6" d="M 1.16,1.45 Q 1.16,1.45 -0.32,2.62 -1.80,3.79 -4.19,5.96 -6.58,8.13 -10.65,11.18 -14.71,14.22 -18.40,18.06 -22.09,21.89 -25.46,25.60 -28.83,29.31 -32.02,33.22 -35.22,37.13 -37.22,39.14 -39.23,41.16 -39.68,42.09 -40.12,43.01 -40.28,43.14 -40.43,43.26 -40.61,43.34 -40.79,43.42 -40.99,43.46 -41.18,43.50 -41.38,43.49 -41.57,43.47 -41.76,43.42 -41.95,43.36 -42.12,43.26 -42.29,43.16 -42.43,43.02 -42.57,42.88 -42.67,42.71 -42.78,42.54 -42.84,42.36 -42.90,42.17 -42.91,41.97 -42.92,41.77 -42.89,41.58 -42.85,41.39 -42.77,41.21 -42.69,41.02 -42.57,40.87 -42.45,40.71 -38.85,37.20 -35.25,33.70 -31.60,29.91 -27.95,26.13 -23.78,21.03 -19.61,15.94 -16.69,11.19 -13.77,6.43 -11.61,3.17 -9.44,-0.07 -8.22,-1.77 -7.01,-3.47 -5.93,-4.86 -4.85,-6.25 -4.40,-7.11 -3.95,-7.97 -3.82,-8.15 -3.69,-8.33 -3.52,-8.47 -3.35,-8.62 -3.15,-8.72 -2.96,-8.81 -2.74,-8.86 -2.52,-8.91 -2.30,-8.91 -2.08,-8.90 -1.87,-8.84 -1.65,-8.79 -1.46,-8.68 -1.27,-8.57 -1.10,-8.42 -0.94,-8.27 -0.82,-8.09 -0.70,-7.90 -0.62,-7.69 -0.55,-7.48 -0.53,-7.26 -0.51,-7.04 -0.54,-6.82 -0.57,-6.60 -0.65,-6.40 -0.73,-6.19 -3.50,-2.50 -6.27,1.18 -11.20,7.60 -16.13,14.02 -20.01,19.10 -23.88,24.17 -26.42,27.50 -28.97,30.83 -30.64,33.11 -32.30,35.39 -32.89,36.66 -33.48,37.93 -33.70,38.20 -33.93,38.46 -34.06,38.63 -34.18,38.80 -34.34,38.94 -34.51,39.08 -34.70,39.17 -34.89,39.27 -35.09,39.31 -35.30,39.36 -35.51,39.36 -35.73,39.35 -35.93,39.30 -36.14,39.24 -36.32,39.14 -36.51,39.04 -36.66,38.89 -36.82,38.75 -36.94,38.57 -37.05,38.39 -37.13,38.19 -37.20,37.99 -37.22,37.78 -37.24,37.57 -37.21,37.36 -37.18,37.15 -37.10,36.95 -37.02,36.75 -35.83,35.48 -34.64,34.22 -31.89,30.09 -29.13,25.96 -23.95,21.07 -18.77,16.19 -13.61,12.08 -8.45,7.97 -4.83,4.79 -1.20,1.62 0.57,-0.53 2.34,-2.69 3.41,-3.77 4.47,-4.86 4.61,-5.35 4.74,-5.84 4.92,-5.97 5.09,-6.09 5.29,-6.16 5.49,-6.24 5.70,-6.26 5.91,-6.29 6.12,-6.26 6.33,-6.24 6.53,-6.16 6.73,-6.09 6.91,-5.97 7.08,-5.85 7.22,-5.69 7.36,-5.53 7.46,-5.34 7.56,-5.15 7.61,-4.95 7.66,-4.74 7.66,-4.53 7.66,-4.32 7.61,-4.11 7.56,-3.90 7.46,-3.71 7.37,-3.53 7.22,-3.37 7.08,-3.21 6.05,-1.58 5.01,0.03 1.51,4.44 -1.99,8.85 -8.84,15.48 -15.68,22.10 -21.81,28.12 -27.94,34.14 -30.77,38.09 -33.60,42.04 -35.20,43.82 -36.81,45.61 -37.08,45.78 -37.35,45.95 -37.48,46.07 -37.62,46.19 -37.78,46.28 -37.94,46.36 -38.12,46.40 -38.30,46.45 -38.48,46.45 -38.66,46.45 -38.84,46.40 -39.01,46.36 -39.17,46.27 -39.33,46.19 -39.47,46.07 -39.61,45.95 -39.71,45.80 -39.81,45.65 -39.88,45.48 -39.94,45.31 -39.96,45.13 -39.98,44.95 -39.96,44.77 -39.94,44.59 -39.87,44.42 -39.81,44.25 -39.71,44.10 -39.60,43.95 -37.35,40.75 -35.09,37.54 -31.67,34.93 -28.25,32.31 -24.02,27.24 -19.78,22.17 -16.16,17.91 -12.53,13.64 -10.42,10.96 -8.30,8.28 -7.41,7.27 -6.53,6.25 -6.45,6.17 -6.38,6.09 -6.22,5.97 -6.06,5.85 -5.88,5.78 -5.70,5.70 -5.50,5.67 -5.31,5.64 -5.11,5.66 -4.92,5.68 -4.73,5.74 -4.54,5.81 -4.38,5.91 -4.21,6.02 -4.08,6.16 -3.94,6.31 -3.84,6.48 -3.75,6.65 -3.69,6.84 -3.64,7.03 -3.63,7.23 -3.63,7.43 -3.67,7.62 -3.71,7.81 -3.80,7.99 -3.88,8.17 -4.01,8.32 -4.13,8.47 -6.07,11.77 -8.00,15.06 -11.88,20.44 -15.75,25.81 -18.24,30.07 -20.72,34.33 -22.67,37.92 -24.63,41.51 -25.78,43.37 -26.94,45.23 -27.66,46.10 -28.39,46.98 -28.43,47.46 -28.48,47.95 -28.64,48.08 -28.81,48.21 -29.00,48.29 -29.19,48.38 -29.39,48.42 -29.60,48.46 -29.81,48.44 -30.02,48.43 -30.22,48.37 -30.42,48.31 -30.60,48.20 -30.78,48.09 -30.93,47.95 -31.08,47.80 -31.19,47.62 -31.30,47.44 -31.36,47.24 -31.42,47.04 -31.43,46.83 -31.45,46.62 -31.41,46.41 -31.37,46.21 -31.29,46.02 -31.20,45.82 -31.07,45.66 -30.94,45.49 -27.70,42.77 -24.45,40.04 -20.98,36.78 -17.51,33.52 -13.90,30.63 -10.29,27.73 -6.36,25.01 -2.44,22.30 0.28,19.48 3.02,16.67 5.20,15.06 7.38,13.46 7.91,13.02 8.43,12.57 8.60,12.48 8.77,12.38 8.96,12.33 9.14,12.28 9.34,12.27 9.53,12.27 9.72,12.31 9.91,12.35 10.08,12.43 10.26,12.52 10.41,12.64 10.56,12.76 10.67,12.92 10.79,13.08 10.86,13.26 10.93,13.43 10.96,13.63 10.99,13.82 10.97,14.01 10.96,14.20 10.89,14.39 10.83,14.57 10.73,14.73 10.62,14.90 10.48,15.03 10.34,15.16 7.71,18.60 5.09,22.04 0.69,28.03 -3.70,34.02 -10.31,42.19 -16.92,50.37 -21.21,55.61 -25.49,60.84 -27.58,62.98 -29.68,65.12 -29.65,66.28 -29.62,67.43 -29.77,67.55 -29.91,67.67 -30.09,67.75 -30.26,67.84 -30.45,67.88 -30.63,67.92 -30.82,67.91 -31.01,67.90 -31.20,67.85 -31.38,67.80 -31.55,67.70 -31.71,67.61 -31.85,67.48 -31.99,67.35 -32.09,67.19 -32.19,67.03 -32.26,66.84 -32.32,66.66 -32.33,66.47 -32.35,66.28 -32.32,66.10 -32.29,65.91 -32.22,65.73 -32.14,65.56 -32.03,65.40 -31.92,65.25 -30.03,63.65 -28.15,62.05 -25.05,58.99 -21.94,55.94 -18.91,52.04 -15.87,48.14 -12.77,44.38 -9.68,40.62 -7.79,38.16 -5.90,35.70 -4.48,34.03 -3.06,32.36 -1.88,31.23 -0.70,30.10 -0.30,29.11 0.09,28.12 0.21,27.93 0.33,27.75 0.49,27.60 0.66,27.45 0.85,27.34 1.04,27.23 1.26,27.17 1.47,27.12 1.69,27.11 1.91,27.11 2.13,27.16 2.34,27.20 2.54,27.30 2.74,27.40 2.91,27.54 3.08,27.69 3.21,27.87 3.34,28.05 3.42,28.25 3.50,28.46 3.54,28.67 3.57,28.89 3.54,29.11 3.52,29.33 3.45,29.54 3.37,29.75 2.99,31.26 2.61,32.76 -0.46,36.70 -3.54,40.64 -6.30,44.00 -9.07,47.35 -11.39,50.77 -13.72,54.19 -15.04,55.95 -16.35,57.72 -16.47,57.86 -16.58,57.99 -16.73,58.10 -16.88,58.20 -17.05,58.27 -17.21,58.34 -17.39,58.36 -17.57,58.39 -17.75,58.37 -17.93,58.35 -18.10,58.29 -18.27,58.23 -18.42,58.13 -18.57,58.03 -18.69,57.89 -18.81,57.76 -18.90,57.60 -18.99,57.44 -19.03,57.27 -19.08,57.10 -19.08,56.91 -19.09,56.73 -19.05,56.56 -19.01,56.38 -18.93,56.22 -18.84,56.06 -16.89,53.74 -14.94,51.42 -12.63,49.54 -10.32,47.65 -9.21,46.35 -8.10,45.05 -7.24,44.29 -6.38,43.53 -6.07,42.91 -5.75,42.28 -5.54,42.17 -5.33,42.06 -5.10,42.00 -4.87,41.94 -4.63,41.93 -4.39,41.93 -4.16,41.99 -3.93,42.04 -3.72,42.15 -3.50,42.26 -3.32,42.41 -3.14,42.57 -3.00,42.76 -2.87,42.96 -2.78,43.18 -2.69,43.40 -2.66,43.64 -2.63,43.88 -2.66,44.12 -2.68,44.35 -2.76,44.58 -2.85,44.80 -2.98,45.00 -3.11,45.20 -3.29,45.36 -3.47,45.52 -4.46,46.59 -5.46,47.67 -6.28,49.38 -7.10,51.09 -7.80,52.39 -8.51,53.68 -8.77,54.40 -9.03,55.12 -9.16,55.35 -9.28,55.59 -9.46,55.78 -9.64,55.98 -9.86,56.13 -10.07,56.28 -10.32,56.38 -10.57,56.47 -10.84,56.50 -11.10,56.53 -11.36,56.50 -11.63,56.47 -11.88,56.37 -12.12,56.28 -12.34,56.13 -12.56,55.98 -12.74,55.78 -12.91,55.58 -13.03,55.34 -13.16,55.11 -13.22,54.85 -13.28,54.59 -13.28,54.32 -13.28,54.06 -13.22,53.80 -13.15,53.54 -12.11,52.28 -11.06,51.02 -8.99,49.72 -6.92,48.43 -3.57,45.13 -0.21,41.84 2.73,38.66 5.69,35.49 7.84,32.98 9.99,30.48 10.82,29.62 11.65,28.76 11.80,28.61 11.96,28.46 12.15,28.36 12.34,28.25 12.55,28.19 12.75,28.13 12.97,28.13 13.19,28.12 13.40,28.17 13.61,28.21 13.80,28.31 14.00,28.40 14.16,28.54 14.33,28.68 14.46,28.85 14.59,29.02 14.67,29.22 14.75,29.42 14.79,29.64 14.82,29.85 14.80,30.07 14.78,30.28 14.71,30.49 14.64,30.69 14.52,30.87 14.40,31.06 12.17,32.93 9.94,34.80 7.44,37.71 4.94,40.63 3.19,42.25 1.43,43.88 0.94,45.27 0.45,46.66 0.30,46.82 0.15,46.98 -0.02,47.10 -0.21,47.22 -0.42,47.29 -0.63,47.36 -0.85,47.38 -1.07,47.40 -1.28,47.37 -1.50,47.34 -1.71,47.25 -1.91,47.17 -2.09,47.04 -2.26,46.91 -2.41,46.74 -2.55,46.57 -2.64,46.37 -2.74,46.17 -2.79,45.95 -2.83,45.74 -2.83,45.52 -2.82,45.30 -2.76,45.09 -2.70,44.87 -2.59,44.68 -2.48,44.49 -0.81,43.08 0.85,41.66 1.03,41.49 1.21,41.32 1.42,41.20 1.64,41.08 1.87,41.01 2.11,40.95 2.35,40.94 2.60,40.93 2.84,40.98 3.08,41.03 3.30,41.14 3.52,41.25 3.71,41.40 3.90,41.56 4.05,41.75 4.19,41.95 4.29,42.18 4.38,42.40 4.42,42.65 4.46,42.89 4.44,43.13 4.42,43.38 4.34,43.61 4.26,43.84 4.13,44.05 3.99,44.26 3.20,45.01 2.41,45.76 0.86,46.92 -0.68,48.09 -2.40,50.14 -4.12,52.18 -5.48,53.44 -6.84,54.69 -6.99,54.84 -7.15,55.00 -7.34,55.11 -7.53,55.22 -7.73,55.28 -7.94,55.34 -8.16,55.36 -8.38,55.37 -8.59,55.32 -8.81,55.28 -9.00,55.19 -9.20,55.10 -9.37,54.96 -9.54,54.83 -9.67,54.66 -9.81,54.48 -9.89,54.28 -9.98,54.08 -10.02,53.87 -10.06,53.65 -10.04,53.44 -10.02,53.22 -9.96,53.01 -9.89,52.81 -9.78,52.62 -9.66,52.43 -9.23,51.12 -8.79,49.81 -6.65,46.13 -4.50,42.45 -2.10,38.56 0.29,34.68 3.70,29.76 7.11,24.85 9.12,21.36 11.13,17.87 11.99,15.88 12.86,13.89 12.19,12.84 11.51,11.79 11.60,11.61 11.69,11.44 11.82,11.28 11.95,11.13 12.12,11.01 12.28,10.90 12.47,10.82 12.65,10.75 12.85,10.72 13.05,10.69 13.25,10.71 13.45,10.73 13.64,10.80 13.83,10.87 14.00,10.98 14.16,11.09 14.30,11.23 14.44,11.38 14.53,11.56 14.63,11.73 14.68,11.93 14.73,12.12 14.74,12.32 14.74,12.52 14.70,12.72 14.65,12.92 12.66,14.89 10.67,16.86 7.10,18.62 3.54,20.37 0.44,22.76 -2.64,25.14 -4.29,26.47 -5.94,27.80 -6.86,28.75 -7.78,29.71 -7.95,29.81 -8.11,29.91 -8.29,29.97 -8.47,30.03 -8.66,30.05 -8.85,30.06 -9.04,30.03 -9.23,30.00 -9.40,29.92 -9.58,29.85 -9.73,29.73 -9.88,29.62 -10.00,29.47 -10.12,29.32 -10.20,29.15 -10.28,28.98 -10.32,28.79 -10.36,28.60 -10.35,28.41 -10.34,28.22 -10.29,28.04 -10.24,27.85 -10.14,27.69 -10.04,27.52 -9.91,27.39 -9.78,27.25 -8.91,25.15 -8.04,23.05 -5.10,19.65 -2.16,16.25 0.53,13.37 3.24,10.49 5.81,6.97 8.38,3.46 10.38,1.35 12.38,-0.74 12.49,-0.86 12.60,-0.98 12.74,-1.07 12.87,-1.16 13.03,-1.21 13.18,-1.26 13.34,-1.28 13.50,-1.29 13.66,-1.27 13.82,-1.25 13.97,-1.18 14.12,-1.12 14.25,-1.03 14.38,-0.93 14.49,-0.81 14.59,-0.68 14.66,-0.54 14.73,-0.39 14.77,-0.24 14.80,-0.08 14.80,0.07 14.79,0.23 14.75,0.39 14.71,0.55 14.63,0.69 14.55,0.83 13.60,2.09 12.65,3.36 11.11,4.75 9.57,6.14 9.01,7.08 8.44,8.01 8.28,8.08 8.12,8.15 7.97,8.32 7.81,8.49 7.62,8.61 7.43,8.74 7.21,8.82 6.99,8.90 6.76,8.92 6.54,8.94 6.31,8.91 6.08,8.88 5.87,8.79 5.65,8.71 5.47,8.57 5.28,8.44 5.13,8.26 4.98,8.09 4.88,7.88 4.77,7.68 4.72,7.45 4.67,7.23 4.68,7.00 4.68,6.77 4.74,6.55 4.80,6.32 4.91,6.12 5.02,5.92 6.16,4.69 7.31,3.45 9.12,2.27 10.93,1.09 12.67,-0.91 14.41,-2.93 15.54,-4.02 16.66,-5.11 17.08,-5.88 17.49,-6.65 17.69,-6.79 17.89,-6.92 18.12,-7.01 18.35,-7.09 18.59,-7.12 18.83,-7.14 19.07,-7.11 19.32,-7.08 19.54,-6.99 19.77,-6.90 19.97,-6.76 20.17,-6.62 20.33,-6.44 20.49,-6.25 20.60,-6.04 20.71,-5.82 20.76,-5.58 20.82,-5.34 20.82,-5.10 20.81,-4.86 20.75,-4.62 20.69,-4.39 20.58,-4.17 20.46,-3.96 20.30,-3.78 20.14,-3.60 18.48,-2.27 16.83,-0.94 15.99,0.22 15.15,1.39 14.35,2.39 13.55,3.40 13.33,3.52 13.11,3.64 12.87,3.71 12.63,3.77 12.38,3.78 12.13,3.79 11.88,3.74 11.64,3.68 11.41,3.57 11.19,3.46 11.00,3.30 10.81,3.14 10.66,2.94 10.51,2.74 10.41,2.51 10.32,2.28 10.28,2.03 10.24,1.78 10.27,1.53 10.29,1.28 10.37,1.05 10.45,0.81 10.59,0.60 10.73,0.39 10.91,0.22 11.09,0.05 12.85,-0.94 14.60,-1.93 16.12,-3.42 17.64,-4.91 18.25,-5.92 18.85,-6.92 19.06,-7.05 19.27,-7.17 19.45,-7.38 19.62,-7.58 19.84,-7.73 20.06,-7.88 20.31,-7.98 20.56,-8.08 20.82,-8.11 21.09,-8.15 21.35,-8.12 21.62,-8.09 21.87,-8.00 22.12,-7.90 22.34,-7.75 22.56,-7.60 22.74,-7.41 22.92,-7.21 23.04,-6.97 23.17,-6.74 23.23,-6.48 23.30,-6.22 23.30,-5.95 23.31,-5.69 23.24,-5.43 23.18,-5.17 23.06,-4.93 22.94,-4.69 21.67,-2.79 20.40,-0.89 19.31,0.00 18.22,0.91 16.91,1.80 15.60,2.68 14.67,3.91 13.74,5.14 13.42,6.18 13.09,7.22 12.93,7.45 12.78,7.68 12.64,7.93 12.51,8.19 12.32,8.40 12.13,8.61 11.89,8.78 11.65,8.94 11.39,9.04 11.12,9.14 10.83,9.17 10.55,9.20 10.27,9.17 9.98,9.13 9.72,9.03 9.45,8.93 9.21,8.76 8.98,8.60 8.79,8.38 8.60,8.17 8.47,7.91 8.34,7.66 8.27,7.38 8.20,7.10 8.21,6.82 8.21,6.53 8.28,6.25 8.35,5.98 9.30,3.78 10.26,1.59 12.32,-0.78 14.38,-3.16 17.38,-5.60 20.37,-8.03 23.70,-10.51 27.04,-12.98 28.78,-14.07 30.52,-15.16 31.19,-16.00 31.85,-16.84 32.05,-16.93 32.24,-17.03 32.46,-17.07 32.67,-17.11 32.89,-17.10 33.10,-17.09 33.31,-17.03 33.52,-16.97 33.71,-16.86 33.89,-16.75 34.05,-16.60 34.21,-16.45 34.32,-16.27 34.44,-16.08 34.51,-15.88 34.57,-15.67 34.59,-15.45 34.61,-15.24 34.57,-15.02 34.54,-14.81 34.45,-14.61 34.36,-14.41 34.23,-14.24 34.10,-14.06 33.93,-13.93 33.76,-13.79 33.11,-12.87 32.45,-11.94 30.50,-9.94 28.55,-7.94 26.50,-6.20 24.45,-4.46 23.40,-3.41 22.35,-2.36 21.70,-3.47 21.05,-4.59 22.15,-4.87 23.24,-5.15 23.35,-4.30 23.45,-3.46 23.74,-3.44 24.04,-3.42 24.32,-3.34 24.60,-3.25 24.85,-3.10 25.10,-2.95 25.31,-2.74 25.52,-2.53 25.67,-2.28 25.83,-2.03 25.91,-1.75 26.00,-1.47 26.02,-1.17 26.04,-0.88 25.99,-0.59 25.93,-0.30 25.81,-0.03 25.69,0.23 25.51,0.46 25.33,0.69 25.10,0.87 24.87,1.05 24.60,1.18 24.33,1.30 24.05,1.35 23.76,1.40 23.66,1.41 23.57,1.41 23.18,1.34 22.79,1.27 22.45,1.08 22.10,0.89 21.83,0.60 21.57,0.31 21.40,-0.04 21.24,-0.40 21.20,-0.79 21.17,-1.18 21.26,-1.57 21.35,-1.95 21.55,-2.29 21.76,-2.62 22.06,-2.88 22.37,-3.13 22.74,-3.27 23.11,-3.41 23.50,-3.43 23.90,-3.44 24.27,-3.33 24.65,-3.22 24.98,-3.00 25.30,-2.77 25.54,-2.46 25.77,-2.14 25.89,-1.76 26.02,-1.39 26.01,-0.99 26.01,-0.60 25.88,-0.22 25.74,0.14 25.50,0.45 25.26,0.76 24.93,0.98 24.60,1.20 24.22,1.30 23.84,1.40 23.44,1.37 23.05,1.35 22.68,1.20 22.32,1.04 22.02,0.79 21.72,0.53 21.52,0.19 21.32,-0.15 21.24,-0.53 21.16,-0.92 21.21,-1.31 21.26,-1.70 21.43,-2.06 21.60,-2.42 21.87,-2.70 22.15,-2.98 22.50,-3.16 22.85,-3.34 23.15,-3.40 23.45,-3.46 23.74,-3.44 24.03,-3.42 24.32,-3.34 24.60,-3.25 24.85,-3.10 25.10,-2.95 25.31,-2.74 25.52,-2.53 25.67,-2.28 25.83,-2.03 25.91,-1.75 26.00,-1.47 26.02,-1.17 26.04,-0.88 25.99,-0.59 25.93,-0.30 25.81,-0.03 25.69,0.23 25.51,0.46 25.33,0.69 25.10,0.87 24.87,1.05 24.60,1.18 24.34,1.30 24.05,1.35 23.76,1.40 23.77,0.33 23.78,-0.73 22.60,-0.71 21.41,-0.69 20.43,-1.31 19.44,-1.93 19.71,-3.35 19.98,-4.78 21.19,-5.78 22.41,-6.78 24.29,-8.48 26.17,-10.18 27.91,-12.12 29.66,-14.06 30.75,-15.45 31.85,-16.84 32.05,-16.93 32.24,-17.03 32.46,-17.07 32.67,-17.11 32.88,-17.10 33.10,-17.09 33.31,-17.03 33.52,-16.97 33.71,-16.86 33.89,-16.75 34.05,-16.60 34.21,-16.45 34.32,-16.27 34.44,-16.08 34.51,-15.88 34.57,-15.67 34.59,-15.45 34.61,-15.24 34.57,-15.02 34.54,-14.81 34.45,-14.61 34.36,-14.41 34.23,-14.24 34.10,-14.06 33.93,-13.93 33.76,-13.79 33.00,-13.14 32.23,-12.49 30.60,-11.47 28.97,-10.44 25.76,-7.94 22.56,-5.43 19.87,-3.10 17.19,-0.77 15.62,1.13 14.06,3.03 13.42,5.36 12.78,7.68 12.64,7.93 12.51,8.19 12.32,8.40 12.13,8.61 11.89,8.78 11.65,8.94 11.39,9.04 11.12,9.14 10.83,9.17 10.55,9.20 10.27,9.17 9.98,9.13 9.72,9.03 9.45,8.93 9.21,8.76 8.98,8.60 8.79,8.38 8.60,8.17 8.47,7.91 8.34,7.66 8.27,7.38 8.20,7.10 8.21,6.82 8.21,6.53 8.28,6.25 8.35,5.98 8.60,5.73 8.85,5.49 9.49,4.03 10.13,2.56 11.46,0.68 12.80,-1.19 14.81,-2.56 16.82,-3.93 18.04,-5.55 19.27,-7.17 19.45,-7.38 19.62,-7.58 19.84,-7.73 20.06,-7.88 20.31,-7.98 20.56,-8.08 20.82,-8.11 21.08,-8.15 21.35,-8.12 21.62,-8.09 21.87,-8.00 22.12,-7.90 22.34,-7.75 22.56,-7.60 22.74,-7.41 22.92,-7.21 23.04,-6.97 23.17,-6.74 23.23,-6.48 23.30,-6.22 23.30,-5.95 23.31,-5.69 23.24,-5.43 23.18,-5.17 23.06,-4.93 22.94,-4.69 22.55,-4.52 22.15,-4.35 21.35,-3.27 20.54,-2.18 18.74,-0.15 16.93,1.88 15.24,2.64 13.55,3.40 13.33,3.52 13.11,3.64 12.87,3.71 12.63,3.77 12.38,3.78 12.13,3.79 11.88,3.74 11.64,3.68 11.41,3.57 11.19,3.46 11.00,3.30 10.81,3.14 10.66,2.94 10.51,2.74 10.41,2.51 10.32,2.28 10.28,2.03 10.24,1.78 10.27,1.53 10.29,1.28 10.37,1.05 10.45,0.81 10.59,0.60 10.73,0.39 10.91,0.22 11.09,0.05 11.71,-0.41 12.32,-0.88 13.41,-2.15 14.50,-3.41 15.99,-5.03 17.49,-6.65 17.69,-6.79 17.89,-6.92 18.12,-7.01 18.35,-7.09 18.59,-7.12 18.83,-7.14 19.07,-7.11 19.32,-7.08 19.54,-6.99 19.77,-6.90 19.97,-6.76 20.17,-6.62 20.33,-6.44 20.49,-6.25 20.60,-6.04 20.71,-5.82 20.76,-5.58 20.82,-5.35 20.82,-5.10 20.81,-4.86 20.75,-4.62 20.69,-4.39 20.58,-4.17 20.46,-3.96 20.30,-3.78 20.14,-3.60 19.62,-2.97 19.10,-2.35 18.05,-1.55 16.99,-0.74 14.99,1.69 12.98,4.13 11.53,5.10 10.08,6.06 9.10,7.11 8.12,8.15 7.97,8.32 7.81,8.49 7.62,8.61 7.43,8.74 7.21,8.82 6.99,8.90 6.76,8.92 6.54,8.94 6.31,8.91 6.08,8.88 5.87,8.79 5.65,8.71 5.47,8.57 5.28,8.44 5.13,8.26 4.98,8.09 4.88,7.88 4.77,7.68 4.72,7.45 4.67,7.23 4.68,7.00 4.68,6.77 4.74,6.55 4.80,6.32 4.91,6.12 5.02,5.92 5.42,5.79 5.83,5.67 6.59,4.75 7.36,3.83 8.95,2.26 10.54,0.69 11.46,-0.02 12.38,-0.74 12.49,-0.86 12.60,-0.98 12.74,-1.07 12.87,-1.16 13.03,-1.21 13.18,-1.26 13.34,-1.28 13.50,-1.29 13.66,-1.27 13.82,-1.25 13.97,-1.19 14.12,-1.12 14.25,-1.03 14.38,-0.93 14.49,-0.81 14.59,-0.69 14.66,-0.54 14.73,-0.39 14.77,-0.24 14.80,-0.08 14.80,0.07 14.79,0.23 14.75,0.39 14.71,0.55 14.63,0.69 14.55,0.83 12.56,2.94 10.56,5.06 7.90,8.71 5.24,12.35 2.58,15.21 -0.06,18.07 -2.80,21.22 -5.54,24.38 -6.66,27.04 -7.78,29.71 -7.95,29.81 -8.11,29.91 -8.29,29.97 -8.47,30.03 -8.66,30.05 -8.85,30.06 -9.04,30.03 -9.23,30.00 -9.40,29.92 -9.58,29.85 -9.73,29.73 -9.88,29.62 -10.00,29.47 -10.12,29.32 -10.20,29.15 -10.28,28.98 -10.32,28.79 -10.36,28.60 -10.35,28.41 -10.34,28.22 -10.29,28.04 -10.24,27.85 -10.14,27.69 -10.04,27.52 -9.91,27.39 -9.78,27.25 -8.70,26.48 -7.63,25.70 -5.96,24.35 -4.29,22.99 -0.98,20.44 2.33,17.90 5.52,16.39 8.71,14.88 10.11,13.34 11.51,11.79 11.60,11.62 11.69,11.44 11.82,11.28 11.95,11.13 12.12,11.01 12.28,10.90 12.47,10.82 12.65,10.75 12.85,10.72 13.05,10.69 13.25,10.71 13.45,10.73 13.64,10.80 13.83,10.87 14.00,10.98 14.16,11.09 14.30,11.23 14.43,11.38 14.53,11.56 14.63,11.73 14.68,11.93 14.73,12.12 14.74,12.32 14.74,12.52 14.70,12.72 14.65,12.92 15.02,13.32 15.39,13.71 14.54,16.52 13.69,19.32 11.67,22.95 9.65,26.58 6.35,31.46 3.06,36.35 0.78,40.24 -1.48,44.14 -3.39,47.67 -5.30,51.19 -6.07,52.94 -6.84,54.69 -6.99,54.84 -7.15,55.00 -7.34,55.11 -7.53,55.22 -7.73,55.28 -7.94,55.34 -8.16,55.36 -8.38,55.37 -8.59,55.32 -8.81,55.28 -9.00,55.19 -9.20,55.10 -9.37,54.96 -9.54,54.83 -9.67,54.66 -9.81,54.48 -9.89,54.28 -9.98,54.08 -10.02,53.87 -10.06,53.65 -10.04,53.44 -10.02,53.22 -9.96,53.01 -9.89,52.81 -9.78,52.62 -9.66,52.43 -8.30,51.18 -6.95,49.92 -5.05,47.44 -3.15,44.97 -1.14,43.32 0.85,41.66 1.03,41.49 1.21,41.33 1.42,41.20 1.64,41.08 1.87,41.02 2.11,40.95 2.35,40.94 2.60,40.93 2.84,40.98 3.08,41.03 3.30,41.14 3.52,41.24 3.71,41.40 3.90,41.56 4.05,41.75 4.19,41.95 4.29,42.18 4.38,42.40 4.42,42.65 4.46,42.89 4.44,43.13 4.42,43.38 4.34,43.61 4.26,43.84 4.13,44.05 3.99,44.26 2.22,45.46 0.45,46.66 0.30,46.82 0.15,46.98 -0.02,47.10 -0.21,47.22 -0.42,47.29 -0.63,47.36 -0.85,47.38 -1.07,47.40 -1.28,47.37 -1.50,47.34 -1.71,47.25 -1.91,47.17 -2.09,47.04 -2.26,46.91 -2.41,46.74 -2.55,46.57 -2.64,46.37 -2.74,46.17 -2.79,45.95 -2.83,45.74 -2.83,45.52 -2.82,45.30 -2.76,45.09 -2.70,44.87 -2.59,44.68 -2.48,44.49 -2.45,44.21 -2.42,43.92 -1.50,42.84 -0.58,41.75 1.02,40.21 2.62,38.66 5.24,35.51 7.86,32.36 9.75,30.56 11.65,28.76 11.80,28.61 11.96,28.46 12.15,28.36 12.34,28.25 12.55,28.19 12.75,28.13 12.97,28.13 13.19,28.12 13.40,28.17 13.61,28.21 13.80,28.31 14.00,28.40 14.16,28.54 14.33,28.68 14.46,28.85 14.59,29.02 14.67,29.22 14.75,29.42 14.79,29.64 14.82,29.85 14.80,30.07 14.78,30.28 14.71,30.49 14.64,30.69 14.52,30.87 14.40,31.06 13.42,31.78 12.43,32.51 10.32,35.13 8.20,37.75 5.29,41.08 2.38,44.41 -1.12,48.08 -4.63,51.75 -6.83,53.43 -9.03,55.12 -9.16,55.35 -9.28,55.59 -9.46,55.78 -9.64,55.98 -9.86,56.13 -10.07,56.28 -10.32,56.38 -10.57,56.47 -10.84,56.50 -11.10,56.53 -11.36,56.50 -11.63,56.47 -11.88,56.37 -12.12,56.28 -12.34,56.13 -12.56,55.98 -12.74,55.78 -12.91,55.58 -13.03,55.34 -13.16,55.11 -13.22,54.85 -13.28,54.59 -13.28,54.32 -13.28,54.06 -13.22,53.80 -13.15,53.54 -12.55,52.58 -11.94,51.61 -11.21,50.54 -10.49,49.47 -9.32,47.01 -8.15,44.55 -6.95,43.42 -5.75,42.28 -5.54,42.17 -5.33,42.06 -5.10,42.00 -4.87,41.94 -4.63,41.93 -4.39,41.93 -4.16,41.99 -3.93,42.04 -3.72,42.15 -3.50,42.26 -3.32,42.41 -3.14,42.57 -3.00,42.76 -2.87,42.96 -2.78,43.18 -2.69,43.40 -2.66,43.64 -2.63,43.88 -2.66,44.12 -2.68,44.35 -2.76,44.58 -2.85,44.80 -2.98,45.00 -3.11,45.20 -3.29,45.36 -3.47,45.52 -4.60,46.36 -5.74,47.20 -7.06,48.60 -8.38,49.99 -10.40,51.68 -12.42,53.37 -14.38,55.54 -16.35,57.72 -16.47,57.86 -16.58,57.99 -16.73,58.10 -16.88,58.20 -17.05,58.27 -17.21,58.34 -17.39,58.36 -17.57,58.39 -17.75,58.37 -17.93,58.35 -18.10,58.29 -18.27,58.23 -18.42,58.13 -18.57,58.03 -18.69,57.89 -18.81,57.76 -18.90,57.60 -18.99,57.44 -19.03,57.27 -19.08,57.10 -19.08,56.91 -19.09,56.73 -19.05,56.56 -19.01,56.38 -18.93,56.22 -18.84,56.06 -17.59,54.26 -16.33,52.45 -14.00,48.87 -11.67,45.28 -9.03,41.87 -6.39,38.47 -3.68,34.82 -0.98,31.18 -0.44,29.65 0.09,28.12 0.21,27.93 0.33,27.75 0.49,27.60 0.66,27.45 0.85,27.34 1.04,27.23 1.26,27.17 1.47,27.12 1.69,27.11 1.91,27.11 2.13,27.16 2.34,27.20 2.54,27.30 2.74,27.40 2.91,27.54 3.08,27.69 3.21,27.87 3.34,28.05 3.42,28.25 3.50,28.46 3.54,28.67 3.57,28.89 3.54,29.11 3.52,29.33 3.45,29.54 3.38,29.75 3.07,29.92 2.77,30.08 2.04,31.22 1.31,32.35 0.12,33.21 -1.06,34.07 -2.44,35.69 -3.81,37.30 -5.73,39.80 -7.64,42.30 -10.72,46.03 -13.79,49.77 -16.94,53.79 -20.09,57.82 -23.21,60.90 -26.33,63.98 -27.98,65.70 -29.62,67.43 -29.77,67.55 -29.91,67.67 -30.09,67.75 -30.26,67.84 -30.45,67.88 -30.63,67.92 -30.82,67.91 -31.01,67.90 -31.20,67.85 -31.38,67.80 -31.55,67.70 -31.71,67.61 -31.85,67.48 -31.99,67.35 -32.09,67.19 -32.19,67.03 -32.26,66.85 -32.32,66.66 -32.33,66.47 -32.35,66.28 -32.32,66.10 -32.29,65.91 -32.22,65.73 -32.14,65.56 -32.03,65.40 -31.92,65.25 -31.86,64.51 -31.80,63.77 -29.68,61.46 -27.55,59.15 -23.28,53.92 -19.01,48.68 -12.45,40.55 -5.88,32.42 -1.49,26.42 2.88,20.43 5.66,16.50 8.43,12.57 8.60,12.48 8.77,12.38 8.96,12.33 9.14,12.28 9.34,12.27 9.53,12.27 9.72,12.31 9.91,12.35 10.08,12.43 10.26,12.52 10.41,12.64 10.56,12.76 10.67,12.92 10.79,13.08 10.86,13.26 10.93,13.43 10.96,13.63 10.99,13.82 10.97,14.01 10.96,14.20 10.89,14.39 10.83,14.57 10.73,14.73 10.62,14.90 10.48,15.03 10.34,15.16 9.68,15.43 9.03,15.70 7.04,17.17 5.05,18.64 2.14,21.66 -0.77,24.68 -4.57,27.37 -8.38,30.06 -11.85,32.94 -15.32,35.81 -18.78,39.19 -22.25,42.58 -25.36,45.26 -28.48,47.95 -28.64,48.08 -28.81,48.21 -29.00,48.29 -29.19,48.38 -29.39,48.42 -29.60,48.46 -29.81,48.44 -30.02,48.43 -30.22,48.37 -30.42,48.31 -30.60,48.20 -30.78,48.09 -30.93,47.95 -31.08,47.80 -31.19,47.62 -31.30,47.44 -31.36,47.24 -31.42,47.04 -31.43,46.83 -31.45,46.62 -31.41,46.41 -31.37,46.21 -31.29,46.02 -31.20,45.83 -31.07,45.66 -30.95,45.49 -30.10,44.64 -29.26,43.78 -28.17,41.98 -27.07,40.18 -25.13,36.55 -23.18,32.91 -20.65,28.51 -18.13,24.11 -14.38,18.83 -10.63,13.55 -8.50,9.82 -6.38,6.09 -6.22,5.97 -6.06,5.85 -5.88,5.78 -5.70,5.70 -5.50,5.67 -5.31,5.64 -5.11,5.66 -4.92,5.68 -4.73,5.74 -4.54,5.81 -4.38,5.91 -4.21,6.02 -4.08,6.16 -3.94,6.31 -3.84,6.48 -3.75,6.65 -3.69,6.84 -3.64,7.03 -3.63,7.23 -3.63,7.43 -3.67,7.62 -3.71,7.81 -3.80,7.99 -3.88,8.17 -4.01,8.32 -4.13,8.47 -4.24,8.52 -4.35,8.57 -5.27,9.26 -6.19,9.95 -8.32,12.67 -10.46,15.39 -14.07,19.67 -17.67,23.94 -22.11,29.23 -26.55,34.53 -29.66,36.87 -32.77,39.21 -35.06,42.58 -37.35,45.95 -37.48,46.07 -37.62,46.19 -37.78,46.28 -37.94,46.36 -38.12,46.40 -38.30,46.45 -38.48,46.45 -38.66,46.45 -38.84,46.40 -39.01,46.36 -39.17,46.27 -39.33,46.19 -39.47,46.07 -39.61,45.95 -39.71,45.80 -39.81,45.65 -39.88,45.48 -39.94,45.31 -39.96,45.13 -39.98,44.95 -39.96,44.77 -39.94,44.59 -39.87,44.42 -39.81,44.25 -39.71,44.10 -39.60,43.95 -39.16,43.84 -38.73,43.73 -37.28,42.08 -35.83,40.43 -32.87,36.30 -29.91,32.16 -23.79,26.11 -17.67,20.05 -10.99,13.54 -4.30,7.03 -0.96,2.75 2.37,-1.52 3.56,-3.68 4.74,-5.84 4.92,-5.97 5.09,-6.09 5.29,-6.16 5.49,-6.24 5.70,-6.26 5.91,-6.29 6.12,-6.26 6.33,-6.24 6.53,-6.16 6.73,-6.09 6.91,-5.97 7.08,-5.85 7.22,-5.69 7.36,-5.53 7.46,-5.34 7.56,-5.15 7.61,-4.95 7.66,-4.74 7.66,-4.53 7.66,-4.32 7.61,-4.11 7.56,-3.90 7.46,-3.71 7.37,-3.53 7.22,-3.37 7.08,-3.21 6.89,-2.89 6.70,-2.57 5.61,-1.74 4.52,-0.90 2.61,1.43 0.71,3.78 -2.93,7.03 -6.58,10.29 -11.60,14.37 -16.62,18.45 -21.50,23.12 -26.38,27.78 -29.24,32.24 -32.10,36.69 -33.01,37.58 -33.93,38.46 -34.06,38.63 -34.18,38.80 -34.34,38.94 -34.51,39.08 -34.70,39.17 -34.89,39.27 -35.09,39.31 -35.30,39.36 -35.51,39.36 -35.73,39.35 -35.93,39.30 -36.14,39.24 -36.32,39.14 -36.51,39.04 -36.66,38.89 -36.82,38.75 -36.94,38.57 -37.05,38.39 -37.13,38.19 -37.20,37.99 -37.22,37.78 -37.24,37.57 -37.21,37.36 -37.18,37.15 -37.10,36.95 -37.02,36.75 -36.65,36.52 -36.27,36.29 -35.45,35.01 -34.62,33.73 -32.97,31.39 -31.32,29.06 -28.82,25.69 -26.33,22.33 -22.52,17.20 -18.70,12.08 -13.88,5.61 -9.06,-0.85 -6.50,-4.41 -3.95,-7.97 -3.82,-8.15 -3.69,-8.33 -3.52,-8.47 -3.35,-8.62 -3.15,-8.72 -2.96,-8.81 -2.74,-8.86 -2.52,-8.91 -2.30,-8.91 -2.08,-8.90 -1.87,-8.84 -1.65,-8.79 -1.46,-8.68 -1.27,-8.57 -1.10,-8.42 -0.94,-8.27 -0.82,-8.09 -0.70,-7.90 -0.62,-7.69 -0.55,-7.48 -0.53,-7.26 -0.51,-7.04 -0.54,-6.82 -0.57,-6.61 -0.65,-6.40 -0.73,-6.19 -1.62,-5.23 -2.50,-4.27 -3.63,-3.06 -4.76,-1.84 -5.95,-0.20 -7.15,1.44 -9.27,4.66 -11.39,7.88 -14.39,12.81 -17.40,17.74 -21.61,22.95 -25.82,28.16 -29.38,31.94 -32.95,35.71 -36.54,39.36 -40.12,43.01 -40.28,43.14 -40.43,43.26 -40.61,43.34 -40.79,43.42 -40.99,43.46 -41.18,43.50 -41.38,43.49 -41.57,43.47 -41.76,43.42 -41.95,43.36 -42.12,43.26 -42.29,43.16 -42.43,43.02 -42.57,42.88 -42.67,42.71 -42.78,42.54 -42.84,42.36 -42.90,42.17 -42.91,41.97 -42.92,41.77 -42.89,41.58 -42.85,41.39 -42.77,41.21 -42.69,41.02 -42.57,40.87 -42.45,40.71 -41.83,39.96 -41.21,39.21 -39.32,37.28 -37.42,35.34 -34.21,31.35 -31.00,27.36 -27.64,23.58 -24.28,19.81 -20.47,15.75 -16.65,11.70 -12.78,8.69 -8.90,5.67 -6.50,3.30 -4.09,0.93 -2.63,-0.26 -1.16,-1.45 -0.97,-1.57 -0.78,-1.69 -0.56,-1.76 -0.35,-1.83 -0.13,-1.84 0.09,-1.86 0.31,-1.82 0.53,-1.78 0.74,-1.69 0.94,-1.60 1.12,-1.46 1.30,-1.33 1.44,-1.15 1.58,-0.98 1.68,-0.77 1.77,-0.57 1.81,-0.35 1.86,-0.13 1.84,0.09 1.83,0.31 1.77,0.53 1.70,0.74 1.59,0.94 1.47,1.13 1.32,1.29 1.16,1.45 1.16,1.45 L 1.16,1.45 Z"></path></g><g transform="translate(125.98222343772 103.40161183242486) rotate(0 -0.51318770958801 16.935429338687385)" stroke="none"><path fill="#228be6" d="M 1.28,1.53 Q 1.28,1.53 -0.54,2.93 -2.36,4.33 -3.62,5.95 -4.87,7.56 -6.05,8.98 -7.22,10.40 -8.17,12.10 -9.11,13.80 -9.34,13.93 -9.56,14.06 -9.81,14.13 -10.06,14.19 -10.32,14.20 -10.57,14.21 -10.83,14.15 -11.08,14.10 -11.31,13.99 -11.54,13.87 -11.74,13.71 -11.94,13.54 -12.09,13.34 -12.24,13.13 -12.34,12.89 -12.44,12.65 -12.48,12.40 -12.52,12.14 -12.49,11.88 -12.47,11.63 -12.39,11.38 -12.30,11.14 -12.16,10.92 -12.02,10.71 -11.83,10.53 -11.64,10.35 -8.67,7.79 -5.69,5.23 -2.89,3.06 -0.08,0.90 2.27,-0.64 4.63,-2.19 4.45,-1.95 4.27,-1.71 4.46,-1.83 4.64,-1.96 4.85,-2.04 5.05,-2.11 5.27,-2.14 5.49,-2.16 5.71,-2.14 5.93,-2.11 6.13,-2.03 6.34,-1.95 6.52,-1.82 6.70,-1.70 6.85,-1.53 6.99,-1.36 7.10,-1.17 7.20,-0.97 7.25,-0.76 7.30,-0.54 7.30,-0.32 7.30,-0.10 7.24,0.10 7.19,0.32 7.09,0.51 6.98,0.71 6.84,0.87 6.69,1.04 4.18,3.36 1.67,5.69 -3.81,11.41 -9.29,17.14 -16.36,24.30 -23.44,31.47 -26.74,34.80 -30.05,38.13 -31.09,39.31 -32.13,40.50 -32.28,40.62 -32.43,40.74 -32.60,40.82 -32.78,40.90 -32.96,40.94 -33.15,40.97 -33.34,40.96 -33.54,40.95 -33.72,40.90 -33.90,40.84 -34.07,40.74 -34.23,40.65 -34.37,40.51 -34.51,40.38 -34.61,40.21 -34.71,40.05 -34.77,39.87 -34.82,39.69 -34.84,39.49 -34.85,39.30 -34.82,39.11 -34.78,38.93 -34.71,38.75 -34.63,38.57 -34.51,38.42 -34.40,38.27 -32.43,36.45 -30.46,34.64 -26.36,31.16 -22.26,27.67 -14.33,21.18 -6.40,14.69 2.59,8.08 11.60,1.47 15.98,-2.18 20.36,-5.84 21.26,-6.32 22.15,-6.80 22.31,-6.90 22.47,-7.01 22.65,-7.07 22.83,-7.13 23.02,-7.15 23.22,-7.17 23.40,-7.14 23.59,-7.11 23.77,-7.04 23.95,-6.97 24.10,-6.85 24.26,-6.74 24.38,-6.59 24.50,-6.45 24.59,-6.28 24.67,-6.10 24.71,-5.92 24.75,-5.73 24.75,-5.54 24.74,-5.35 24.69,-5.16 24.64,-4.98 24.55,-4.81 24.45,-4.64 24.32,-4.50 24.19,-4.36 22.84,-2.93 21.49,-1.51 19.09,0.70 16.68,2.92 12.76,7.05 8.85,11.18 5.10,15.02 1.34,18.86 -1.70,22.24 -4.75,25.62 -6.94,27.96 -9.14,30.30 -10.00,31.65 -10.86,33.00 -11.00,33.12 -11.14,33.24 -11.30,33.32 -11.47,33.40 -11.65,33.43 -11.82,33.47 -12.01,33.47 -12.19,33.46 -12.37,33.41 -12.54,33.37 -12.70,33.28 -12.86,33.19 -12.99,33.06 -13.13,32.94 -13.22,32.78 -13.32,32.63 -13.38,32.46 -13.44,32.29 -13.46,32.10 -13.48,31.92 -13.45,31.74 -13.42,31.56 -13.35,31.39 -13.28,31.22 -13.17,31.08 -13.07,30.93 -12.75,29.87 -12.43,28.81 -8.58,24.35 -4.73,19.90 1.92,12.70 8.59,5.51 14.66,-1.35 20.73,-8.21 24.47,-13.15 28.21,-18.10 29.50,-19.64 30.79,-21.18 30.91,-21.30 31.03,-21.43 31.18,-21.52 31.32,-21.61 31.49,-21.67 31.65,-21.73 31.83,-21.74 32.00,-21.75 32.17,-21.73 32.34,-21.70 32.51,-21.63 32.67,-21.56 32.80,-21.46 32.94,-21.35 33.05,-21.22 33.16,-21.08 33.24,-20.92 33.31,-20.77 33.35,-20.60 33.38,-20.42 33.38,-20.25 33.37,-20.08 33.32,-19.91 33.27,-19.74 33.19,-19.59 33.10,-19.44 31.92,-17.25 30.73,-15.06 24.83,-7.49 18.93,0.06 10.80,8.88 2.68,17.70 -5.19,25.86 -13.07,34.03 -17.30,38.38 -21.53,42.73 -23.30,44.84 -25.07,46.95 -25.46,47.34 -25.84,47.72 -25.98,47.84 -26.11,47.97 -26.27,48.06 -26.43,48.15 -26.61,48.20 -26.79,48.25 -26.97,48.25 -27.16,48.26 -27.34,48.22 -27.52,48.18 -27.68,48.10 -27.85,48.02 -27.99,47.90 -28.13,47.78 -28.24,47.63 -28.35,47.48 -28.42,47.31 -28.49,47.14 -28.52,46.96 -28.55,46.78 -28.53,46.59 -28.51,46.41 -28.45,46.23 -28.39,46.06 -28.29,45.91 -28.19,45.75 -26.24,43.59 -24.30,41.43 -21.73,38.42 -19.16,35.41 -15.11,30.87 -11.06,26.33 -6.98,21.75 -2.90,17.17 0.98,14.26 4.88,11.34 6.97,8.77 9.06,6.20 9.94,4.71 10.81,3.23 10.94,3.10 11.07,2.98 11.22,2.89 11.38,2.81 11.55,2.76 11.72,2.71 11.90,2.70 12.08,2.69 12.25,2.73 12.43,2.77 12.59,2.84 12.75,2.92 12.89,3.03 13.02,3.15 13.13,3.29 13.24,3.43 13.30,3.60 13.37,3.76 13.40,3.94 13.43,4.11 13.41,4.29 13.40,4.47 13.34,4.64 13.29,4.81 13.19,4.96 13.09,5.11 8.93,9.49 4.76,13.88 -1.92,21.07 -8.62,28.27 -14.73,34.29 -20.84,40.31 -24.28,44.30 -27.72,48.29 -29.49,50.27 -31.25,52.26 -31.35,52.91 -31.45,53.56 -31.59,53.68 -31.72,53.80 -31.89,53.89 -32.05,53.98 -32.23,54.02 -32.41,54.07 -32.60,54.07 -32.78,54.07 -32.96,54.02 -33.14,53.98 -33.31,53.89 -33.47,53.81 -33.61,53.69 -33.75,53.56 -33.85,53.41 -33.96,53.26 -34.02,53.09 -34.09,52.91 -34.11,52.73 -34.14,52.55 -34.11,52.36 -34.09,52.18 -34.03,52.00 -33.96,51.83 -33.86,51.68 -33.75,51.53 -31.92,50.01 -30.08,48.49 -26.12,44.89 -22.15,41.29 -15.72,35.91 -9.29,30.52 -1.20,24.96 6.87,19.40 11.77,16.16 16.67,12.92 18.71,11.28 20.74,9.64 22.53,9.26 24.32,8.88 23.56,8.74 22.79,8.61 22.98,8.54 23.16,8.48 23.36,8.47 23.56,8.45 23.75,8.48 23.94,8.52 24.12,8.60 24.31,8.67 24.46,8.79 24.62,8.91 24.74,9.06 24.87,9.22 24.95,9.39 25.03,9.57 25.07,9.77 25.11,9.96 25.10,10.16 25.09,10.35 25.04,10.54 24.98,10.73 24.88,10.90 24.78,11.07 24.65,11.21 24.51,11.35 24.34,11.46 24.18,11.56 23.12,12.23 22.06,12.90 20.21,14.50 18.36,16.09 14.23,19.47 10.10,22.85 3.03,28.70 -4.02,34.54 -11.17,40.27 -18.32,46.00 -21.58,49.54 -24.84,53.07 -26.56,54.60 -28.27,56.13 -28.40,56.24 -28.52,56.35 -28.67,56.42 -28.82,56.50 -28.98,56.53 -29.15,56.57 -29.31,56.57 -29.48,56.57 -29.64,56.52 -29.80,56.48 -29.95,56.40 -30.09,56.32 -30.22,56.21 -30.34,56.10 -30.43,55.96 -30.52,55.82 -30.58,55.66 -30.64,55.50 -30.65,55.34 -30.67,55.17 -30.65,55.01 -30.62,54.84 -30.56,54.69 -30.50,54.54 -30.40,54.40 -30.31,54.26 -29.14,54.03 -27.98,53.80 -24.81,51.04 -21.64,48.28 -15.69,43.24 -9.74,38.19 -2.43,33.06 4.88,27.93 10.61,23.71 16.34,19.50 19.36,17.13 22.38,14.76 23.60,13.96 24.82,13.16 24.99,13.06 25.15,12.96 25.33,12.90 25.51,12.85 25.70,12.83 25.89,12.82 26.08,12.86 26.27,12.89 26.45,12.97 26.62,13.04 26.77,13.16 26.92,13.28 27.04,13.43 27.16,13.58 27.24,13.75 27.32,13.93 27.35,14.11 27.39,14.30 27.38,14.49 27.37,14.68 27.31,14.87 27.25,15.05 27.15,15.21 27.06,15.38 26.92,15.51 26.79,15.65 25.38,18.17 23.97,20.68 20.31,25.06 16.64,29.44 10.63,35.15 4.61,40.87 -1.79,45.96 -8.21,51.06 -11.36,52.83 -14.51,54.61 -14.58,55.47 -14.65,56.34 -14.80,56.42 -14.95,56.51 -15.12,56.55 -15.28,56.60 -15.45,56.61 -15.62,56.61 -15.79,56.58 -15.96,56.54 -16.12,56.47 -16.27,56.39 -16.40,56.28 -16.54,56.17 -16.64,56.04 -16.74,55.90 -16.81,55.74 -16.87,55.58 -16.90,55.41 -16.93,55.24 -16.91,55.07 -16.90,54.90 -16.84,54.74 -16.79,54.57 -16.69,54.43 -16.60,54.28 -16.48,54.16 -16.35,54.05 -14.36,51.33 -12.38,48.62 -8.10,45.48 -3.81,42.35 0.54,38.46 4.90,34.58 9.19,31.40 13.47,28.22 15.27,26.58 17.07,24.95 17.21,24.88 17.35,24.80 17.50,24.75 17.66,24.71 17.82,24.70 17.97,24.70 18.13,24.73 18.29,24.76 18.43,24.83 18.57,24.90 18.70,25.00 18.82,25.11 18.91,25.23 19.01,25.36 19.07,25.51 19.13,25.65 19.16,25.81 19.18,25.97 19.17,26.13 19.15,26.29 19.10,26.44 19.05,26.59 18.97,26.72 18.88,26.86 18.76,26.97 18.65,27.07 16.50,29.70 14.36,32.33 11.41,35.12 8.46,37.91 6.59,39.39 4.73,40.88 4.59,40.98 4.46,41.08 4.30,41.15 4.15,41.22 3.98,41.24 3.81,41.27 3.64,41.25 3.47,41.24 3.31,41.19 3.15,41.13 3.01,41.04 2.86,40.95 2.74,40.83 2.63,40.70 2.54,40.56 2.46,40.41 2.41,40.25 2.36,40.08 2.36,39.91 2.35,39.74 2.39,39.58 2.42,39.41 2.49,39.26 2.57,39.10 2.67,38.97 2.78,38.84 5.20,37.33 7.63,35.83 9.08,36.27 10.53,36.71 11.01,37.15 11.49,37.58 11.67,37.71 11.86,37.84 12.00,38.01 12.15,38.18 12.26,38.38 12.36,38.58 12.42,38.80 12.47,39.01 12.47,39.24 12.47,39.46 12.41,39.68 12.36,39.90 12.25,40.10 12.15,40.30 12.00,40.47 11.85,40.63 11.66,40.76 11.48,40.89 11.27,40.97 11.06,41.05 10.84,41.07 10.61,41.10 10.39,41.07 10.17,41.05 9.96,40.97 9.75,40.89 8.78,42.10 7.82,43.31 5.54,45.05 3.25,46.79 2.05,47.88 0.85,48.98 -0.67,49.93 -2.20,50.88 -2.49,50.98 -2.77,51.07 -3.06,51.08 -3.36,51.08 -3.64,50.98 -3.93,50.89 -4.16,50.71 -4.40,50.53 -4.57,50.29 -4.74,50.04 -4.82,49.76 -4.90,49.47 -4.89,49.17 -4.87,48.88 -4.76,48.60 -4.65,48.32 -4.46,48.10 -4.27,47.87 -4.02,47.71 -3.76,47.56 -3.47,47.49 -3.18,47.43 -2.89,47.46 -2.59,47.49 -2.32,47.61 -2.05,47.73 -1.83,47.94 -1.62,48.14 -1.48,48.40 -1.34,48.67 -1.29,48.96 -1.24,49.25 -1.28,49.55 -1.33,49.84 -1.47,50.10 -1.61,50.37 -1.82,50.57 -2.03,50.78 -2.30,50.90 -2.57,51.03 -2.87,51.06 -3.16,51.10 -3.45,51.04 -3.74,50.97 -4.00,50.82 -4.26,50.67 -4.45,50.44 -4.64,50.22 -4.76,49.94 -4.87,49.67 -4.88,49.37 -4.90,49.07 -4.82,48.79 -4.75,48.50 -4.58,48.25 -4.42,48.01 -4.18,47.82 -3.94,47.64 -3.94,47.64 -3.94,47.64 -2.59,47.04 -1.23,46.44 0.08,45.43 1.40,44.42 3.66,42.60 5.92,40.79 8.70,39.19 11.49,37.58 11.67,37.71 11.86,37.84 12.00,38.01 12.15,38.18 12.26,38.38 12.36,38.58 12.41,38.80 12.47,39.01 12.47,39.24 12.47,39.46 12.41,39.68 12.36,39.90 12.25,40.10 12.15,40.30 12.00,40.47 11.85,40.63 11.67,40.76 11.48,40.89 11.27,40.97 11.06,41.05 10.84,41.07 10.61,41.10 10.39,41.07 10.17,41.05 9.96,40.97 9.75,40.89 8.64,39.57 7.53,38.26 6.13,39.57 4.73,40.88 4.59,40.98 4.46,41.08 4.30,41.15 4.15,41.22 3.98,41.24 3.81,41.27 3.64,41.26 3.47,41.24 3.31,41.19 3.15,41.13 3.01,41.04 2.86,40.95 2.75,40.83 2.63,40.70 2.54,40.56 2.46,40.41 2.41,40.25 2.36,40.08 2.36,39.91 2.35,39.74 2.39,39.58 2.42,39.41 2.49,39.26 2.57,39.10 2.67,38.97 2.78,38.84 4.62,37.33 6.46,35.82 9.44,32.94 12.42,30.06 14.31,28.58 16.20,27.11 16.64,26.03 17.07,24.95 17.21,24.88 17.35,24.80 17.50,24.75 17.66,24.71 17.82,24.70 17.97,24.70 18.13,24.73 18.29,24.76 18.43,24.83 18.57,24.90 18.70,25.00 18.82,25.10 18.91,25.23 19.01,25.36 19.07,25.51 19.13,25.65 19.16,25.81 19.18,25.97 19.17,26.13 19.15,26.29 19.10,26.44 19.05,26.59 18.97,26.72 18.88,26.86 18.76,26.97 18.65,27.07 16.85,28.71 15.05,30.34 10.86,33.45 6.67,36.56 2.20,40.53 -2.25,44.51 -6.24,47.37 -10.24,50.22 -12.44,53.28 -14.65,56.34 -14.80,56.42 -14.95,56.51 -15.12,56.55 -15.28,56.60 -15.45,56.61 -15.62,56.61 -15.79,56.58 -15.96,56.54 -16.12,56.47 -16.27,56.39 -16.40,56.28 -16.54,56.17 -16.64,56.04 -16.74,55.90 -16.81,55.74 -16.87,55.58 -16.90,55.41 -16.93,55.24 -16.91,55.07 -16.90,54.90 -16.84,54.74 -16.79,54.57 -16.69,54.43 -16.60,54.28 -16.48,54.16 -16.35,54.05 -16.57,54.60 -16.79,55.16 -13.35,52.04 -9.91,48.92 -3.60,43.89 2.71,38.86 8.59,33.25 14.48,27.63 17.99,23.41 21.49,19.19 23.16,16.17 24.82,13.16 24.99,13.06 25.15,12.96 25.33,12.90 25.51,12.85 25.70,12.83 25.89,12.82 26.08,12.86 26.27,12.89 26.45,12.97 26.62,13.04 26.77,13.16 26.92,13.28 27.04,13.43 27.16,13.58 27.24,13.75 27.32,13.93 27.35,14.11 27.39,14.30 27.38,14.49 27.37,14.68 27.31,14.87 27.25,15.05 27.15,15.21 27.06,15.38 26.92,15.51 26.79,15.65 25.44,16.29 24.08,16.93 21.05,19.34 18.01,21.76 12.27,26.02 6.53,30.28 -0.64,35.36 -7.82,40.45 -13.75,45.56 -19.68,50.67 -23.98,53.40 -28.27,56.13 -28.40,56.24 -28.52,56.35 -28.67,56.42 -28.82,56.50 -28.98,56.53 -29.15,56.57 -29.31,56.57 -29.48,56.57 -29.64,56.52 -29.80,56.48 -29.95,56.40 -30.09,56.32 -30.22,56.21 -30.34,56.10 -30.43,55.96 -30.52,55.82 -30.58,55.66 -30.64,55.51 -30.65,55.34 -30.67,55.17 -30.65,55.01 -30.62,54.84 -30.56,54.69 -30.50,54.54 -30.40,54.40 -30.31,54.26 -28.61,52.72 -26.91,51.17 -23.52,47.46 -20.13,43.76 -13.03,38.01 -5.93,32.25 1.09,26.36 8.11,20.46 12.14,17.05 16.17,13.63 18.25,11.73 20.32,9.83 21.56,9.22 22.79,8.61 22.98,8.54 23.16,8.48 23.36,8.47 23.56,8.45 23.75,8.48 23.94,8.52 24.12,8.60 24.31,8.67 24.46,8.79 24.62,8.91 24.74,9.06 24.87,9.22 24.95,9.39 25.03,9.57 25.07,9.77 25.11,9.96 25.10,10.16 25.09,10.35 25.04,10.54 24.98,10.73 24.88,10.90 24.78,11.07 24.65,11.21 24.51,11.35 24.34,11.46 24.18,11.56 23.27,11.63 22.37,11.70 20.25,13.41 18.13,15.11 13.25,18.34 8.37,21.57 0.38,27.06 -7.59,32.55 -13.98,37.90 -20.37,43.25 -24.34,46.86 -28.31,50.46 -29.88,52.01 -31.45,53.56 -31.59,53.68 -31.72,53.80 -31.89,53.89 -32.05,53.98 -32.23,54.02 -32.41,54.07 -32.60,54.07 -32.78,54.07 -32.96,54.02 -33.14,53.98 -33.31,53.89 -33.47,53.81 -33.61,53.69 -33.75,53.56 -33.85,53.41 -33.96,53.26 -34.02,53.09 -34.09,52.91 -34.11,52.73 -34.14,52.55 -34.11,52.36 -34.09,52.18 -34.03,52.01 -33.96,51.83 -33.86,51.68 -33.75,51.53 -33.53,51.06 -33.30,50.59 -31.52,48.57 -29.75,46.54 -26.24,42.47 -22.74,38.40 -16.68,32.41 -10.62,26.42 -3.95,19.23 2.70,12.05 6.76,7.64 10.81,3.23 10.94,3.11 11.07,2.98 11.22,2.89 11.38,2.81 11.55,2.76 11.72,2.71 11.90,2.70 12.08,2.69 12.25,2.73 12.43,2.77 12.59,2.84 12.75,2.92 12.89,3.03 13.02,3.15 13.13,3.29 13.24,3.43 13.30,3.60 13.37,3.76 13.40,3.94 13.43,4.11 13.41,4.29 13.40,4.47 13.34,4.64 13.29,4.81 13.19,4.96 13.09,5.11 12.09,6.49 11.10,7.87 8.78,10.66 6.46,13.44 2.76,16.19 -0.94,18.93 -5.01,23.51 -9.09,28.09 -13.12,32.61 -17.15,37.12 -19.71,40.13 -22.27,43.14 -24.05,45.43 -25.84,47.72 -25.98,47.84 -26.11,47.97 -26.27,48.06 -26.43,48.15 -26.61,48.20 -26.79,48.25 -26.97,48.25 -27.16,48.26 -27.34,48.22 -27.52,48.18 -27.68,48.10 -27.85,48.02 -27.99,47.90 -28.13,47.78 -28.24,47.63 -28.35,47.48 -28.42,47.31 -28.49,47.14 -28.52,46.96 -28.55,46.78 -28.53,46.59 -28.51,46.41 -28.45,46.23 -28.39,46.06 -28.29,45.91 -28.19,45.75 -27.64,45.49 -27.09,45.23 -25.27,43.05 -23.44,40.87 -19.22,36.52 -15.00,32.16 -7.15,24.01 0.69,15.86 8.73,7.12 16.77,-1.62 22.52,-8.99 28.28,-16.36 29.53,-18.77 30.79,-21.18 30.91,-21.30 31.03,-21.43 31.18,-21.52 31.32,-21.61 31.49,-21.67 31.65,-21.73 31.83,-21.74 32.00,-21.75 32.17,-21.73 32.34,-21.70 32.51,-21.63 32.67,-21.56 32.80,-21.46 32.94,-21.35 33.05,-21.22 33.16,-21.08 33.24,-20.92 33.31,-20.77 33.35,-20.60 33.38,-20.43 33.38,-20.25 33.37,-20.08 33.32,-19.91 33.27,-19.74 33.19,-19.59 33.10,-19.44 31.79,-17.91 30.48,-16.39 26.70,-11.34 22.93,-6.29 16.88,0.63 10.83,7.56 4.25,14.76 -2.31,21.96 -6.01,26.40 -9.71,30.83 -10.28,31.92 -10.86,33.00 -11.00,33.12 -11.14,33.24 -11.30,33.32 -11.47,33.40 -11.65,33.43 -11.82,33.47 -12.01,33.47 -12.19,33.46 -12.36,33.41 -12.54,33.37 -12.70,33.28 -12.86,33.19 -12.99,33.06 -13.13,32.94 -13.22,32.78 -13.32,32.63 -13.38,32.46 -13.44,32.29 -13.46,32.10 -13.48,31.92 -13.45,31.74 -13.42,31.56 -13.35,31.39 -13.28,31.22 -13.17,31.08 -13.07,30.93 -12.07,29.71 -11.07,28.49 -8.89,26.17 -6.71,23.85 -3.62,20.43 -0.54,17.01 3.18,13.18 6.92,9.35 10.90,5.15 14.88,0.96 17.16,-1.13 19.44,-3.23 20.80,-5.02 22.15,-6.80 22.31,-6.90 22.47,-7.01 22.65,-7.07 22.83,-7.13 23.02,-7.15 23.21,-7.17 23.40,-7.14 23.59,-7.11 23.77,-7.04 23.95,-6.97 24.10,-6.85 24.26,-6.74 24.38,-6.59 24.50,-6.45 24.59,-6.28 24.67,-6.10 24.71,-5.92 24.75,-5.73 24.75,-5.54 24.74,-5.35 24.69,-5.16 24.64,-4.98 24.55,-4.81 24.45,-4.64 24.32,-4.50 24.19,-4.36 23.11,-4.07 22.04,-3.77 17.61,-0.06 13.19,3.64 4.25,10.21 -4.69,16.79 -12.59,23.27 -20.49,29.75 -24.50,33.18 -28.50,36.60 -30.31,38.55 -32.13,40.50 -32.28,40.62 -32.43,40.74 -32.60,40.82 -32.78,40.90 -32.96,40.94 -33.15,40.97 -33.34,40.96 -33.54,40.95 -33.72,40.90 -33.90,40.84 -34.07,40.74 -34.23,40.65 -34.37,40.51 -34.51,40.38 -34.61,40.21 -34.71,40.05 -34.77,39.87 -34.82,39.69 -34.84,39.49 -34.85,39.30 -34.82,39.11 -34.78,38.93 -34.71,38.75 -34.63,38.57 -34.51,38.42 -34.40,38.27 -33.23,37.21 -32.06,36.14 -28.79,32.79 -25.51,29.43 -18.49,22.25 -11.47,15.07 -6.01,9.26 -0.55,3.46 1.86,0.87 4.27,-1.71 4.46,-1.83 4.64,-1.96 4.85,-2.04 5.05,-2.11 5.27,-2.14 5.49,-2.16 5.71,-2.14 5.93,-2.11 6.13,-2.03 6.34,-1.95 6.52,-1.82 6.70,-1.70 6.85,-1.53 6.99,-1.36 7.10,-1.17 7.20,-0.97 7.25,-0.76 7.30,-0.54 7.30,-0.32 7.30,-0.10 7.24,0.10 7.19,0.32 7.09,0.51 6.98,0.71 6.84,0.87 6.69,1.03 5.60,0.82 4.52,0.61 3.35,2.15 2.19,3.69 -0.53,6.03 -3.25,8.36 -5.31,10.08 -7.37,11.80 -8.24,12.80 -9.11,13.80 -9.34,13.93 -9.56,14.06 -9.81,14.13 -10.06,14.19 -10.32,14.20 -10.57,14.21 -10.83,14.15 -11.08,14.10 -11.31,13.99 -11.54,13.87 -11.74,13.71 -11.94,13.54 -12.09,13.34 -12.24,13.13 -12.34,12.89 -12.44,12.65 -12.48,12.40 -12.52,12.14 -12.49,11.88 -12.47,11.63 -12.39,11.38 -12.30,11.14 -12.16,10.92 -12.02,10.71 -11.83,10.53 -11.64,10.35 -11.97,11.32 -12.29,12.29 -11.73,11.16 -11.16,10.02 -10.51,9.09 -9.86,8.16 -8.72,6.86 -7.57,5.56 -6.14,3.56 -4.71,1.56 -2.99,0.01 -1.28,-1.53 -1.08,-1.67 -0.87,-1.80 -0.64,-1.88 -0.42,-1.95 -0.17,-1.98 0.06,-2.00 0.29,-1.96 0.53,-1.93 0.76,-1.83 0.98,-1.74 1.17,-1.60 1.37,-1.45 1.52,-1.27 1.68,-1.08 1.78,-0.87 1.89,-0.65 1.94,-0.41 1.99,-0.18 1.98,0.06 1.98,0.30 1.91,0.53 1.85,0.76 1.73,0.97 1.61,1.18 1.44,1.36 1.28,1.53 1.28,1.53 L 1.28,1.53 Z"></path></g><g transform="translate(39.76535700066847 137.27250966351215) rotate(0 32.331334702322465 8.21112081454956)" stroke="none"><path fill="#228be6" d="M 1.66,1.66 Q 1.66,1.66 1.11,2.29 0.56,2.92 0.33,3.10 0.09,3.29 -0.17,3.41 -0.44,3.53 -0.73,3.59 -1.03,3.64 -1.32,3.62 -1.62,3.60 -1.90,3.51 -2.19,3.43 -2.44,3.27 -2.70,3.12 -2.91,2.91 -3.12,2.70 -3.27,2.44 -3.43,2.19 -3.51,1.90 -3.60,1.62 -3.62,1.32 -3.64,1.03 -3.59,0.73 -3.53,0.44 -3.41,0.17 -3.29,-0.09 -3.10,-0.33 -2.92,-0.56 -1.33,-0.56 0.26,-0.57 1.05,-1.27 1.85,-1.98 3.04,-2.62 4.23,-3.25 6.32,-3.51 8.41,-3.76 8.76,-2.19 9.11,-0.62 8.11,0.68 7.11,1.99 5.33,4.06 3.54,6.13 2.03,7.69 0.53,9.25 -0.61,9.50 -1.75,9.76 -0.59,9.47 0.56,9.19 1.97,8.89 3.38,8.59 4.90,8.17 6.43,7.75 7.71,7.88 8.99,8.00 10.01,7.60 11.04,7.20 12.29,6.85 13.54,6.51 13.82,6.43 14.09,6.34 14.37,6.32 14.66,6.30 14.94,6.35 15.22,6.39 15.49,6.51 15.75,6.62 15.98,6.80 16.20,6.97 16.38,7.19 16.56,7.42 16.68,7.68 16.80,7.94 16.86,8.22 16.91,8.50 16.90,8.79 16.89,9.07 16.80,9.35 16.72,9.62 16.58,9.87 16.43,10.12 16.23,10.32 16.03,10.53 15.79,10.68 15.54,10.83 15.81,12.12 16.08,13.41 15.71,14.83 15.33,16.25 15.14,16.49 14.96,16.73 14.72,16.92 14.48,17.11 14.20,17.23 13.92,17.36 13.62,17.41 13.32,17.47 13.02,17.45 12.71,17.43 12.42,17.34 12.13,17.25 11.87,17.09 11.61,16.93 11.40,16.72 11.18,16.50 11.03,16.24 10.87,15.98 10.78,15.69 10.69,15.40 10.67,15.09 10.65,14.79 10.71,14.49 10.76,14.19 10.89,13.91 11.01,13.64 12.46,12.69 13.91,11.75 15.30,11.21 16.69,10.66 17.73,10.27 18.76,9.87 19.08,9.83 19.40,9.79 19.72,9.83 20.03,9.86 20.33,9.98 20.63,10.09 20.90,10.27 21.16,10.45 21.37,10.69 21.59,10.93 21.74,11.21 21.88,11.50 21.96,11.81 22.04,12.12 22.04,12.44 22.04,12.76 21.96,13.07 21.89,13.38 21.74,13.66 21.59,13.95 21.38,14.19 21.17,14.43 20.91,14.61 20.64,14.79 20.34,14.90 20.05,15.02 20.60,14.09 21.15,13.16 20.34,12.44 19.53,11.71 20.93,10.89 22.33,10.06 23.59,9.83 24.85,9.59 24.44,10.74 24.02,11.90 25.22,10.62 26.42,9.34 26.79,9.36 27.15,9.37 27.50,9.47 27.85,9.57 28.16,9.75 28.48,9.93 28.74,10.18 29.01,10.43 29.20,10.74 29.40,11.04 29.51,11.39 29.63,11.73 29.66,12.09 29.69,12.46 29.64,12.82 29.58,13.17 29.44,13.51 29.30,13.84 29.08,14.14 28.86,14.43 28.58,14.66 28.30,14.89 27.98,15.05 27.65,15.21 27.29,15.28 26.94,15.35 26.90,13.13 26.86,10.90 28.51,12.51 30.16,14.12 30.78,13.32 31.41,12.52 31.80,12.61 32.18,12.70 32.54,12.88 32.89,13.05 33.19,13.31 33.49,13.57 33.73,13.89 33.96,14.22 34.10,14.58 34.25,14.95 34.31,15.35 34.36,15.74 34.32,16.13 34.28,16.53 34.14,16.90 34.01,17.27 33.79,17.61 33.57,17.94 33.28,18.20 32.98,18.47 32.64,18.66 32.29,18.85 31.90,18.95 31.52,19.06 31.12,19.06 30.73,19.07 32.32,18.26 33.92,17.45 32.90,16.49 31.88,15.52 33.41,15.41 34.94,15.30 36.25,15.32 37.55,15.34 39.07,15.31 40.59,15.28 42.09,15.17 43.59,15.06 45.71,14.73 47.83,14.40 49.53,13.80 51.22,13.20 52.49,12.47 53.76,11.74 54.20,11.21 54.64,10.69 54.88,10.41 55.12,10.14 55.41,9.93 55.71,9.72 56.05,9.58 56.38,9.45 56.74,9.40 57.10,9.35 57.46,9.39 57.83,9.43 58.17,9.55 58.51,9.68 58.81,9.88 59.11,10.08 59.36,10.35 59.60,10.62 59.77,10.94 59.95,11.26 60.04,11.61 60.13,11.96 60.14,12.32 60.14,12.68 60.06,13.04 59.98,13.39 59.81,13.72 59.65,14.04 58.00,15.08 56.35,16.12 55.05,16.85 53.75,17.58 52.90,17.95 52.05,18.32 51.74,18.47 51.42,18.61 51.09,18.68 50.75,18.74 50.40,18.72 50.06,18.71 49.73,18.61 49.40,18.51 49.10,18.34 48.81,18.16 48.56,17.92 48.32,17.68 48.13,17.39 47.95,17.09 47.85,16.77 47.74,16.44 47.72,16.10 47.69,15.75 47.75,15.41 47.81,15.07 47.95,14.76 48.08,14.44 48.29,14.17 48.50,13.90 48.77,13.68 49.04,13.46 51.12,12.63 53.21,11.79 55.88,10.54 58.54,9.28 60.94,8.19 63.34,7.09 64.53,6.31 65.72,5.52 67.32,4.77 68.92,4.03 69.28,3.94 69.64,3.86 70.01,3.90 70.38,3.93 70.72,4.09 71.06,4.24 71.33,4.49 71.60,4.74 71.78,5.07 71.96,5.40 72.02,5.76 72.09,6.13 72.03,6.50 71.97,6.86 71.80,7.19 71.63,7.53 71.37,7.78 71.10,8.04 70.76,8.20 70.43,8.36 70.06,8.40 69.69,8.45 69.32,8.37 68.96,8.30 68.64,8.11 68.32,7.92 68.08,7.64 67.83,7.36 67.69,7.01 67.55,6.67 67.53,6.30 67.50,5.93 67.60,5.57 67.69,5.21 67.90,4.90 68.11,4.59 68.40,4.36 68.69,4.13 69.04,4.01 69.40,3.89 69.77,3.89 70.14,3.88 70.49,4.00 70.85,4.11 71.14,4.33 71.44,4.56 71.65,4.86 71.86,5.17 71.97,5.52 72.07,5.88 72.05,6.25 72.04,6.62 71.90,6.97 71.77,7.32 71.53,7.60 71.29,7.89 70.98,8.08 70.66,8.28 70.66,8.28 70.66,8.28 69.34,8.73 68.03,9.18 66.67,10.01 65.30,10.84 63.08,12.17 60.85,13.49 58.20,15.15 55.54,16.81 53.80,17.57 52.05,18.32 51.74,18.47 51.42,18.61 51.09,18.68 50.75,18.74 50.40,18.72 50.06,18.71 49.73,18.61 49.40,18.51 49.10,18.34 48.81,18.16 48.56,17.92 48.32,17.68 48.13,17.39 47.95,17.09 47.85,16.77 47.74,16.44 47.72,16.10 47.69,15.75 47.75,15.41 47.81,15.07 47.95,14.76 48.08,14.44 48.29,14.17 48.50,13.90 48.77,13.68 49.04,13.46 49.92,13.13 50.80,12.79 52.72,11.74 54.64,10.69 54.88,10.41 55.12,10.14 55.41,9.93 55.71,9.72 56.05,9.58 56.38,9.45 56.74,9.40 57.10,9.35 57.46,9.39 57.83,9.43 58.17,9.55 58.51,9.68 58.81,9.88 59.11,10.08 59.36,10.35 59.60,10.62 59.77,10.94 59.95,11.26 60.04,11.61 60.13,11.96 60.14,12.32 60.14,12.68 60.06,13.04 59.98,13.39 59.81,13.71 59.65,14.04 59.09,14.27 58.53,14.50 57.33,15.92 56.13,17.33 54.77,17.80 53.41,18.27 50.89,19.52 48.38,20.77 47.28,20.88 46.18,20.99 44.59,20.87 42.99,20.74 41.69,21.30 40.39,21.86 38.79,21.78 37.20,21.71 35.47,21.87 33.74,22.03 32.13,22.08 30.52,22.14 29.28,21.04 28.05,19.94 27.76,18.82 27.47,17.69 27.68,16.27 27.90,14.86 29.65,13.69 31.41,12.52 31.80,12.61 32.18,12.70 32.54,12.88 32.89,13.05 33.19,13.31 33.49,13.57 33.73,13.89 33.96,14.21 34.10,14.58 34.25,14.95 34.31,15.34 34.36,15.74 34.32,16.13 34.28,16.53 34.14,16.90 34.01,17.27 33.79,17.60 33.57,17.94 33.28,18.20 32.98,18.47 32.64,18.66 32.29,18.85 31.91,18.95 31.52,19.06 31.12,19.06 30.73,19.07 30.39,19.30 30.05,19.53 28.20,19.08 26.35,18.63 25.59,17.61 24.82,16.60 24.34,13.74 23.87,10.89 25.14,10.12 26.42,9.34 26.79,9.36 27.15,9.37 27.50,9.47 27.85,9.57 28.16,9.75 28.48,9.93 28.74,10.18 29.01,10.43 29.20,10.74 29.40,11.04 29.51,11.39 29.63,11.73 29.66,12.09 29.69,12.46 29.64,12.81 29.58,13.17 29.44,13.51 29.30,13.84 29.08,14.14 28.86,14.43 28.58,14.66 28.30,14.89 27.98,15.05 27.65,15.21 27.29,15.28 26.94,15.35 28.13,14.13 29.33,12.90 26.89,14.22 24.45,15.54 22.91,15.94 21.36,16.35 20.14,16.33 18.93,16.32 17.76,15.13 16.59,13.94 17.68,11.90 18.76,9.87 19.08,9.83 19.40,9.79 19.72,9.83 20.03,9.86 20.33,9.98 20.63,10.09 20.90,10.27 21.16,10.45 21.37,10.69 21.59,10.93 21.74,11.21 21.88,11.50 21.96,11.81 22.04,12.12 22.04,12.44 22.04,12.76 21.96,13.07 21.89,13.38 21.74,13.66 21.59,13.95 21.38,14.19 21.17,14.43 20.91,14.61 20.64,14.79 20.34,14.90 20.05,15.02 19.28,15.22 18.51,15.41 16.92,15.83 15.33,16.25 15.14,16.49 14.96,16.73 14.72,16.92 14.48,17.11 14.20,17.23 13.92,17.36 13.62,17.41 13.32,17.47 13.02,17.45 12.71,17.43 12.42,17.34 12.13,17.25 11.87,17.09 11.61,16.93 11.40,16.72 11.18,16.50 11.03,16.24 10.87,15.98 10.78,15.69 10.69,15.40 10.67,15.09 10.65,14.79 10.71,14.49 10.76,14.19 10.89,13.91 11.01,13.64 11.27,13.04 11.53,12.44 11.78,10.88 12.04,9.31 12.79,7.91 13.54,6.51 13.82,6.43 14.09,6.34 14.37,6.32 14.66,6.30 14.94,6.35 15.22,6.39 15.49,6.51 15.75,6.62 15.98,6.80 16.20,6.97 16.38,7.19 16.56,7.42 16.68,7.68 16.80,7.94 16.86,8.22 16.91,8.50 16.90,8.79 16.89,9.07 16.80,9.35 16.72,9.62 16.58,9.87 16.43,10.12 16.23,10.32 16.03,10.53 15.79,10.68 15.54,10.83 14.26,11.12 12.97,11.40 10.20,11.70 7.43,11.99 5.84,12.44 4.25,12.89 2.50,13.23 0.74,13.58 -1.41,13.40 -3.57,13.22 -4.30,12.17 -5.04,11.11 -3.84,8.83 -2.63,6.54 -1.40,4.90 -0.16,3.26 2.40,0.44 4.97,-2.37 5.77,-0.68 6.56,0.99 5.34,1.61 4.12,2.23 2.34,2.58 0.56,2.92 0.33,3.10 0.09,3.29 -0.17,3.41 -0.44,3.53 -0.73,3.59 -1.03,3.64 -1.32,3.62 -1.62,3.60 -1.90,3.51 -2.19,3.43 -2.44,3.27 -2.70,3.12 -2.91,2.91 -3.12,2.70 -3.27,2.44 -3.43,2.19 -3.51,1.90 -3.60,1.62 -3.62,1.32 -3.64,1.03 -3.59,0.73 -3.53,0.44 -3.41,0.17 -3.29,-0.09 -3.10,-0.33 -2.92,-0.56 -2.29,-1.11 -1.66,-1.66 -1.44,-1.84 -1.21,-2.01 -0.95,-2.13 -0.70,-2.24 -0.42,-2.29 -0.14,-2.35 0.14,-2.33 0.42,-2.31 0.69,-2.23 0.96,-2.14 1.20,-2.00 1.45,-1.85 1.65,-1.65 1.85,-1.45 2.00,-1.20 2.14,-0.96 2.23,-0.69 2.31,-0.42 2.33,-0.14 2.35,0.14 2.29,0.42 2.24,0.70 2.13,0.95 2.01,1.21 1.84,1.44 1.66,1.66 1.66,1.66 L 1.66,1.66 Z"></path></g><g transform="translate(160.87953584169668 99.29603184829381) rotate(0 -1.0264145728890526 2.0527899920655273)" stroke="none"><path fill="#228be6" d="M 1.95,1.30 Q 1.95,1.30 0.65,2.99 -0.63,4.69 -1.42,5.81 -2.21,6.94 -3.15,8.32 -4.09,9.71 -4.33,10.30 -4.57,10.89 -4.83,11.06 -5.08,11.24 -5.37,11.35 -5.66,11.46 -5.97,11.50 -6.28,11.54 -6.59,11.50 -6.90,11.46 -7.19,11.36 -7.48,11.25 -7.73,11.07 -7.99,10.89 -8.20,10.66 -8.40,10.43 -8.55,10.16 -8.69,9.88 -8.77,9.58 -8.84,9.28 -8.84,8.97 -8.84,8.66 -8.77,8.36 -8.70,8.06 -8.55,7.78 -8.41,7.51 -8.20,7.27 -8.00,7.04 -6.73,5.43 -5.47,3.82 -4.44,2.35 -3.42,0.88 -1.62,-0.97 0.17,-2.82 1.09,-3.87 2.02,-4.92 2.13,-5.46 2.23,-6.00 2.44,-6.18 2.65,-6.36 2.90,-6.49 3.14,-6.61 3.41,-6.68 3.68,-6.74 3.96,-6.73 4.24,-6.73 4.50,-6.66 4.77,-6.59 5.01,-6.46 5.26,-6.33 5.46,-6.14 5.66,-5.95 5.82,-5.73 5.97,-5.50 6.07,-5.24 6.16,-4.98 6.19,-4.70 6.22,-4.43 6.18,-4.15 6.15,-3.88 6.04,-3.62 5.94,-3.36 5.78,-3.14 5.62,-2.91 4.05,-1.80 2.48,-0.69 2.12,-0.12 1.76,0.44 1.47,0.56 1.19,0.68 0.89,0.72 0.59,0.77 0.29,0.74 -0.01,0.71 -0.29,0.62 -0.58,0.52 -0.84,0.35 -1.10,0.19 -1.31,-0.03 -1.51,-0.25 -1.66,-0.51 -1.81,-0.78 -1.90,-1.07 -1.98,-1.36 -1.99,-1.67 -2.00,-1.97 -1.94,-2.27 -1.87,-2.57 -1.74,-2.84 -1.61,-3.12 -1.41,-3.35 -1.22,-3.59 -0.97,-3.77 -0.73,-3.95 -0.37,-4.63 -0.02,-5.31 0.11,-5.61 0.26,-5.90 0.47,-6.15 0.68,-6.41 0.95,-6.60 1.21,-6.79 1.52,-6.92 1.82,-7.04 2.14,-7.09 2.47,-7.14 2.80,-7.11 3.12,-7.08 3.43,-6.97 3.74,-6.86 4.02,-6.68 4.29,-6.50 4.52,-6.26 4.74,-6.02 4.90,-5.74 5.06,-5.45 5.15,-5.13 5.24,-4.82 5.25,-4.49 5.25,-4.16 5.18,-3.84 5.11,-3.52 3.55,-1.18 1.99,1.14 1.76,1.43 1.52,1.72 1.20,1.92 0.89,2.12 0.53,2.21 0.16,2.29 -0.20,2.26 -0.57,2.23 -0.91,2.08 -1.25,1.93 -1.53,1.67 -1.80,1.42 -1.98,1.10 -2.16,0.77 -2.23,0.41 -2.30,0.04 -2.24,-0.32 -2.19,-0.69 -2.02,-1.02 -1.85,-1.35 -1.59,-1.62 -1.32,-1.88 -0.99,-2.04 -0.65,-2.20 -0.28,-2.25 0.08,-2.30 0.44,-2.22 0.81,-2.15 1.13,-1.96 1.45,-1.78 1.70,-1.50 1.95,-1.22 2.09,-0.88 2.23,-0.53 2.26,-0.16 2.29,0.20 2.20,0.56 2.10,0.92 1.90,1.24 1.70,1.55 1.40,1.78 1.11,2.01 0.76,2.14 0.41,2.26 0.04,2.27 -0.32,2.27 -0.68,2.16 -1.04,2.05 -1.34,1.83 -1.64,1.61 -1.85,1.31 -2.07,1.00 -2.17,0.64 -2.28,0.29 -2.27,-0.08 -2.25,-0.45 -2.12,-0.80 -1.99,-1.15 -1.99,-1.15 -1.99,-1.14 -1.01,-3.23 -0.02,-5.31 0.11,-5.61 0.26,-5.90 0.47,-6.15 0.68,-6.41 0.95,-6.60 1.21,-6.79 1.52,-6.92 1.82,-7.04 2.14,-7.09 2.47,-7.14 2.80,-7.11 3.12,-7.08 3.43,-6.97 3.74,-6.86 4.02,-6.68 4.29,-6.50 4.52,-6.26 4.74,-6.02 4.90,-5.74 5.06,-5.45 5.15,-5.13 5.24,-4.82 5.25,-4.49 5.25,-4.16 5.18,-3.84 5.11,-3.52 4.71,-3.04 4.30,-2.55 3.03,-1.05 1.76,0.44 1.47,0.56 1.19,0.68 0.89,0.72 0.59,0.77 0.29,0.74 -0.01,0.71 -0.29,0.62 -0.58,0.52 -0.84,0.35 -1.10,0.19 -1.30,-0.03 -1.51,-0.25 -1.66,-0.51 -1.81,-0.78 -1.90,-1.07 -1.98,-1.36 -1.99,-1.67 -2.00,-1.97 -1.94,-2.27 -1.87,-2.57 -1.74,-2.84 -1.61,-3.12 -1.41,-3.35 -1.22,-3.59 -0.97,-3.77 -0.73,-3.95 -0.39,-4.36 -0.05,-4.78 1.08,-5.39 2.23,-6.00 2.44,-6.18 2.65,-6.36 2.90,-6.49 3.14,-6.61 3.41,-6.68 3.68,-6.74 3.96,-6.73 4.24,-6.73 4.50,-6.66 4.77,-6.59 5.01,-6.46 5.26,-6.33 5.46,-6.14 5.66,-5.96 5.82,-5.73 5.97,-5.50 6.07,-5.24 6.16,-4.98 6.19,-4.70 6.22,-4.43 6.18,-4.15 6.15,-3.88 6.04,-3.62 5.94,-3.37 5.78,-3.14 5.62,-2.91 5.49,-2.55 5.36,-2.19 4.36,-1.11 3.35,-0.03 1.97,1.72 0.60,3.48 -0.28,4.97 -1.16,6.46 -2.87,8.67 -4.57,10.89 -4.83,11.06 -5.08,11.24 -5.37,11.35 -5.66,11.46 -5.97,11.50 -6.28,11.54 -6.59,11.50 -6.90,11.46 -7.19,11.36 -7.48,11.25 -7.73,11.07 -7.99,10.89 -8.20,10.66 -8.40,10.43 -8.55,10.16 -8.69,9.88 -8.77,9.58 -8.84,9.28 -8.84,8.97 -8.84,8.66 -8.77,8.36 -8.70,8.06 -8.55,7.78 -8.41,7.51 -8.20,7.27 -8.00,7.04 -8.29,7.98 -8.58,8.93 -7.13,6.63 -5.69,4.32 -4.89,3.35 -4.08,2.38 -3.01,0.54 -1.95,-1.30 -1.76,-1.51 -1.58,-1.73 -1.35,-1.89 -1.12,-2.05 -0.86,-2.16 -0.59,-2.26 -0.31,-2.30 -0.03,-2.34 0.24,-2.31 0.52,-2.28 0.79,-2.18 1.05,-2.09 1.29,-1.93 1.52,-1.78 1.71,-1.57 1.90,-1.36 2.04,-1.11 2.17,-0.86 2.25,-0.59 2.32,-0.32 2.32,-0.03 2.33,0.24 2.26,0.52 2.20,0.79 2.07,1.04 1.95,1.30 1.95,1.30 L 1.95,1.30 Z"></path></g><g transform="translate(164.98503751840258 75.68904482382158) rotate(0 -2.5659777016537646 -2.052789992065499)" stroke="none"><path fill="#228be6" d="M -2.16,0.54 Q -2.16,0.54 -2.49,-0.61 -2.83,-1.76 -4.11,-1.42 -5.39,-1.08 -5.52,-1.35 -5.64,-1.62 -5.69,-1.91 -5.75,-2.20 -5.73,-2.50 -5.71,-2.79 -5.62,-3.07 -5.54,-3.35 -5.38,-3.61 -5.23,-3.86 -5.02,-4.07 -4.82,-4.28 -4.56,-4.43 -4.31,-4.58 -4.03,-4.67 -3.75,-4.76 -3.45,-4.78 -3.16,-4.80 -2.87,-4.74 -2.58,-4.69 -2.31,-4.57 -2.04,-4.45 -1.81,-4.27 -1.58,-4.09 -1.39,-3.86 -1.21,-3.62 0.01,-2.69 1.25,-1.75 1.50,-1.51 1.75,-1.26 1.90,-0.95 2.06,-0.64 2.11,-0.29 2.15,0.05 2.09,0.39 2.03,0.73 1.85,1.04 1.68,1.34 1.42,1.58 1.16,1.81 0.84,1.95 0.52,2.09 0.18,2.12 -0.16,2.15 -0.50,2.07 -0.84,1.98 -1.14,1.79 -1.43,1.61 -1.65,1.34 -1.87,1.06 -1.99,0.74 -2.11,0.41 -2.13,0.06 -2.14,-0.28 -2.03,-0.61 -1.93,-0.95 -1.73,-1.23 -1.53,-1.52 -1.24,-1.72 -0.96,-1.93 -0.63,-2.03 -0.29,-2.13 0.05,-2.13 0.40,-2.12 0.72,-2.00 1.05,-1.88 1.33,-1.66 1.60,-1.44 1.79,-1.15 1.98,-0.85 2.06,-0.52 2.15,-0.18 2.12,0.16 2.09,0.51 1.96,0.83 1.82,1.15 1.59,1.41 1.35,1.67 1.05,1.85 0.75,2.02 0.40,2.09 0.06,2.15 -0.28,2.11 -0.62,2.06 -0.94,1.91 -1.25,1.75 -1.25,1.75 -1.25,1.75 -3.32,0.33 -5.39,-1.08 -5.52,-1.35 -5.64,-1.62 -5.69,-1.91 -5.75,-2.20 -5.73,-2.50 -5.71,-2.79 -5.62,-3.07 -5.54,-3.35 -5.38,-3.61 -5.23,-3.86 -5.02,-4.07 -4.82,-4.28 -4.56,-4.43 -4.31,-4.58 -4.03,-4.67 -3.75,-4.76 -3.45,-4.78 -3.16,-4.80 -2.87,-4.74 -2.58,-4.69 -2.31,-4.57 -2.04,-4.45 -1.81,-4.27 -1.58,-4.09 -1.39,-3.86 -1.21,-3.62 -0.77,-4.17 -0.33,-4.71 0.65,-3.83 1.65,-2.95 1.90,-1.74 2.16,-0.54 2.19,-0.27 2.23,-0.00 2.19,0.25 2.16,0.52 2.07,0.77 1.97,1.03 1.82,1.25 1.67,1.47 1.47,1.65 1.27,1.83 1.03,1.95 0.79,2.08 0.53,2.14 0.27,2.21 0.00,2.21 -0.26,2.21 -0.52,2.15 -0.78,2.08 -1.02,1.96 -1.26,1.84 -1.46,1.66 -1.66,1.48 -1.81,1.26 -1.97,1.04 -2.06,0.79 -2.16,0.54 -2.16,0.54 L -2.16,0.54 Z"></path></g><g transform="translate(159.85308211509505 66.45150943638299) rotate(0 -10.263910806615058 20.014633903641936)" stroke="none"><path fill="#228be6" d="M 2.16,1.44 Q 2.16,1.44 1.57,2.37 0.98,3.29 -0.70,4.07 -2.40,4.84 -3.77,2.90 -5.15,0.96 -4.63,0.39 -4.12,-0.16 -3.91,-0.45 -3.71,-0.73 -3.44,-0.95 -3.17,-1.18 -2.86,-1.34 -2.54,-1.49 -2.20,-1.57 -1.86,-1.64 -1.51,-1.63 -1.16,-1.62 -0.82,-1.53 -0.48,-1.44 -0.18,-1.27 0.12,-1.10 0.38,-0.86 0.63,-0.62 0.82,-0.33 1.02,-0.03 1.13,0.29 1.25,0.62 1.28,0.97 1.31,1.32 1.26,1.66 1.21,2.01 1.08,2.33 0.95,2.66 -0.46,3.16 -1.88,3.66 -2.34,4.70 -2.80,5.74 -2.52,6.79 -2.23,7.84 -4.04,10.94 -5.86,14.03 -8.50,16.94 -11.14,19.85 -13.12,22.13 -15.10,24.42 -16.21,25.72 -17.31,27.03 -17.48,27.21 -17.66,27.38 -17.87,27.50 -18.08,27.63 -18.31,27.70 -18.54,27.77 -18.79,27.78 -19.03,27.79 -19.27,27.75 -19.51,27.70 -19.73,27.60 -19.95,27.50 -20.14,27.34 -20.34,27.19 -20.48,27.00 -20.63,26.81 -20.73,26.58 -20.83,26.36 -20.87,26.12 -20.91,25.88 -20.90,25.63 -20.88,25.39 -20.80,25.16 -20.73,24.93 -20.60,24.72 -20.47,24.51 -18.60,24.38 -16.72,24.25 -14.09,22.81 -11.45,21.37 -10.81,20.74 -10.16,20.10 -9.87,20.02 -9.58,19.93 -9.28,19.92 -8.98,19.90 -8.68,19.96 -8.39,20.02 -8.11,20.15 -7.84,20.28 -7.61,20.47 -7.37,20.65 -7.19,20.90 -7.00,21.14 -6.88,21.41 -6.76,21.69 -6.71,21.99 -6.66,22.29 -6.69,22.59 -6.71,22.89 -6.80,23.18 -6.90,23.46 -7.06,23.72 -7.22,23.98 -7.43,24.19 -7.65,24.40 -7.91,24.55 -8.17,24.70 -9.75,27.17 -11.34,29.64 -12.24,31.08 -13.15,32.51 -14.31,32.35 -15.47,32.19 -13.46,31.38 -11.45,30.57 -10.09,29.63 -8.73,28.68 -6.98,27.81 -5.24,26.94 -3.90,26.84 -2.57,26.73 -1.52,28.02 -0.46,29.31 -0.45,30.41 -0.43,31.52 -0.87,33.01 -1.30,34.51 -2.21,35.76 -3.11,37.00 -4.78,37.75 -6.45,38.50 -8.37,40.36 -10.29,42.23 -10.70,42.49 -11.10,42.76 -11.57,42.88 -12.04,43.00 -12.52,42.97 -13.00,42.93 -13.45,42.75 -13.90,42.56 -14.26,42.24 -14.62,41.92 -14.87,41.50 -15.11,41.08 -15.20,40.61 -15.30,40.14 -15.24,39.66 -15.18,39.18 -14.97,38.74 -14.76,38.30 -14.42,37.96 -14.08,37.61 -13.65,37.39 -13.22,37.17 -12.74,37.10 -12.26,37.03 -11.78,37.12 -11.31,37.21 -10.88,37.44 -10.46,37.68 -10.13,38.03 -9.81,38.39 -9.61,38.83 -9.42,39.27 -9.37,39.76 -9.33,40.24 -9.44,40.71 -9.55,41.18 -9.81,41.59 -10.07,42.00 -10.44,42.31 -10.81,42.61 -11.27,42.78 -11.72,42.96 -12.20,42.97 -12.69,42.99 -13.15,42.85 -13.61,42.72 -14.01,42.44 -14.41,42.16 -14.69,41.77 -14.98,41.38 -15.12,40.92 -15.27,40.46 -15.26,39.97 -15.25,39.49 -15.09,39.03 -14.93,38.58 -14.63,38.20 -14.33,37.82 -14.33,37.82 -14.33,37.82 -12.58,36.24 -10.83,34.65 -9.49,33.75 -8.16,32.85 -6.89,32.33 -5.62,31.80 -5.36,30.51 -5.09,29.22 -4.26,30.01 -3.43,30.81 -4.78,31.51 -6.12,32.21 -7.88,33.58 -9.63,34.94 -11.50,35.71 -13.37,36.47 -14.52,36.41 -15.66,36.35 -16.78,34.61 -17.90,32.87 -17.35,31.61 -16.80,30.36 -15.75,28.50 -14.70,26.64 -13.19,24.78 -11.67,22.91 -10.92,21.51 -10.16,20.10 -9.87,20.02 -9.58,19.93 -9.28,19.92 -8.98,19.90 -8.68,19.96 -8.39,20.02 -8.11,20.15 -7.84,20.28 -7.61,20.47 -7.37,20.65 -7.19,20.90 -7.00,21.14 -6.88,21.41 -6.76,21.69 -6.71,21.99 -6.66,22.29 -6.69,22.59 -6.71,22.89 -6.80,23.18 -6.90,23.46 -7.06,23.72 -7.22,23.98 -7.43,24.19 -7.65,24.40 -7.91,24.55 -8.17,24.70 -8.83,25.22 -9.48,25.74 -10.64,26.19 -11.80,26.64 -13.22,27.69 -14.65,28.74 -15.98,27.89 -17.31,27.03 -17.48,27.20 -17.66,27.38 -17.87,27.50 -18.08,27.62 -18.31,27.70 -18.54,27.77 -18.79,27.78 -19.03,27.79 -19.27,27.75 -19.51,27.70 -19.73,27.60 -19.95,27.50 -20.14,27.34 -20.33,27.19 -20.48,27.00 -20.63,26.81 -20.73,26.58 -20.83,26.36 -20.87,26.12 -20.91,25.88 -20.90,25.63 -20.88,25.39 -20.81,25.16 -20.73,24.93 -20.60,24.72 -20.47,24.51 -19.37,23.20 -18.27,21.89 -16.45,19.41 -14.62,16.92 -12.49,14.16 -10.35,11.40 -9.27,8.92 -8.18,6.44 -8.16,5.29 -8.13,4.15 -7.51,2.85 -6.89,1.55 -6.09,0.68 -5.28,-0.17 -3.55,-0.79 -1.82,-1.42 -2.97,-0.79 -4.12,-0.16 -3.91,-0.45 -3.71,-0.73 -3.44,-0.95 -3.17,-1.18 -2.86,-1.33 -2.54,-1.49 -2.20,-1.57 -1.86,-1.64 -1.51,-1.63 -1.16,-1.62 -0.82,-1.53 -0.48,-1.44 -0.18,-1.27 0.12,-1.10 0.38,-0.86 0.63,-0.62 0.82,-0.33 1.02,-0.03 1.13,0.29 1.25,0.62 1.28,0.97 1.31,1.32 1.26,1.66 1.21,2.01 1.08,2.33 0.95,2.66 0.31,3.10 -0.31,3.53 -1.83,1.89 -3.34,0.24 -2.75,-0.60 -2.16,-1.44 -1.96,-1.68 -1.75,-1.92 -1.50,-2.10 -1.24,-2.28 -0.95,-2.40 -0.66,-2.51 -0.35,-2.56 -0.04,-2.60 0.27,-2.57 0.58,-2.53 0.87,-2.43 1.17,-2.32 1.43,-2.15 1.69,-1.97 1.90,-1.74 2.11,-1.51 2.26,-1.23 2.41,-0.96 2.49,-0.65 2.57,-0.35 2.58,-0.04 2.58,0.27 2.51,0.57 2.44,0.88 2.30,1.16 2.16,1.44 2.16,1.44 L 2.16,1.44 Z"></path></g><g transform="translate(41.81810783902142 132.14055426020457) rotate(0 -4.105540830418477 -3.079184988098234)" stroke="none"><path fill="#228be6" d="M 1.44,2.16 Q 1.44,2.16 0.57,2.77 -0.29,3.38 -1.28,3.99 -2.26,4.59 -3.32,4.70 -4.38,4.81 -5.38,4.20 -6.37,3.59 -6.68,1.50 -6.98,-0.58 -6.50,-1.88 -6.02,-3.19 -5.30,-4.20 -4.57,-5.21 -4.02,-6.16 -3.46,-7.10 -3.21,-7.86 -2.97,-8.61 -2.76,-8.90 -2.54,-9.19 -2.26,-9.42 -1.98,-9.65 -1.65,-9.80 -1.32,-9.96 -0.97,-10.03 -0.61,-10.10 -0.25,-10.09 0.10,-10.07 0.45,-9.97 0.79,-9.87 1.11,-9.69 1.42,-9.51 1.68,-9.26 1.94,-9.01 2.13,-8.70 2.33,-8.40 2.44,-8.05 2.55,-7.71 2.58,-7.35 2.61,-6.99 2.55,-6.63 2.50,-6.27 2.35,-5.94 2.21,-5.61 0.57,-4.89 -1.06,-4.18 -3.06,-4.52 -5.06,-4.86 -7.91,-6.10 -10.75,-7.34 -10.98,-7.79 -11.22,-8.25 -11.30,-8.76 -11.38,-9.26 -11.29,-9.77 -11.20,-10.27 -10.96,-10.73 -10.71,-11.18 -10.33,-11.53 -9.96,-11.87 -9.49,-12.08 -9.02,-12.30 -8.51,-12.35 -8.00,-12.40 -7.50,-12.28 -7.00,-12.17 -6.57,-11.90 -6.13,-11.63 -5.80,-11.23 -5.47,-10.84 -5.29,-10.36 -5.10,-9.88 -5.08,-9.37 -5.06,-8.86 -5.20,-8.37 -5.34,-7.87 -5.63,-7.45 -5.93,-7.03 -6.34,-6.72 -6.75,-6.42 -7.24,-6.26 -7.73,-6.10 -8.24,-6.10 -8.75,-6.11 -9.24,-6.28 -9.72,-6.45 -10.12,-6.76 -10.53,-7.08 -10.81,-7.50 -11.10,-7.93 -11.23,-8.43 -11.36,-8.92 -11.33,-9.43 -11.29,-9.95 -11.10,-10.42 -10.91,-10.89 -10.57,-11.28 -10.23,-11.67 -9.79,-11.93 -9.35,-12.19 -8.85,-12.29 -8.35,-12.40 -7.84,-12.34 -7.33,-12.28 -6.86,-12.06 -6.40,-11.84 -6.03,-11.48 -5.66,-11.12 -5.66,-11.13 -5.66,-11.13 -4.27,-10.90 -2.88,-10.67 -1.65,-10.40 -0.43,-10.12 -1.70,-9.37 -2.97,-8.61 -2.76,-8.90 -2.54,-9.19 -2.26,-9.42 -1.98,-9.65 -1.65,-9.80 -1.32,-9.96 -0.97,-10.03 -0.62,-10.10 -0.25,-10.09 0.10,-10.07 0.44,-9.97 0.79,-9.87 1.11,-9.69 1.42,-9.51 1.68,-9.26 1.94,-9.01 2.13,-8.70 2.33,-8.40 2.44,-8.05 2.55,-7.71 2.58,-7.35 2.61,-6.99 2.55,-6.63 2.50,-6.27 2.35,-5.94 2.21,-5.61 1.94,-4.88 1.66,-4.16 1.01,-3.01 0.36,-1.86 -0.38,-0.71 -1.12,0.42 -1.93,1.14 -2.75,1.86 -3.00,0.41 -3.24,-1.02 -2.34,-1.59 -1.44,-2.16 -1.16,-2.30 -0.88,-2.44 -0.57,-2.51 -0.27,-2.58 0.04,-2.57 0.35,-2.57 0.65,-2.49 0.96,-2.41 1.23,-2.26 1.50,-2.11 1.74,-1.90 1.97,-1.69 2.14,-1.42 2.31,-1.16 2.42,-0.87 2.53,-0.58 2.56,-0.26 2.59,0.04 2.55,0.35 2.51,0.66 2.39,0.95 2.27,1.24 2.09,1.49 1.91,1.75 1.67,1.95 1.44,2.16 1.44,2.16 L 1.44,2.16 Z"></path></g></svg>